<svg id="Layer_5" enable-background="new 0 0 64 64" height="512" viewBox="0 0 64 64" width="512" xmlns="http://www.w3.org/2000/svg"><g><path d="m32 53c2.757 0 5-2.243 5-5s-2.243-5-5-5-5 2.243-5 5 2.243 5 5 5zm0-8c1.654 0 3 1.346 3 3s-1.346 3-3 3-3-1.346-3-3 1.346-3 3-3z"/><path d="m54 14h-6c-1.654 0-3 1.346-3 3 0 1.464.643 2.769 1.649 3.685l-1.823 4.556 1.174 1.173v1.586c0 2.757 2.243 5 5 5v1.525c-3.083 1.211-5.29 4.026-5.666 7.411l-.229 2.064h-.739c-.156-.481-.344-.966-.568-1.446l1.479-2.489-1.277-1.278v-7.226c0-2.543-1.215-4.973-3.249-6.498-.87-.653-1.848-1.118-2.904-1.382l-2.022-.506-.329-1.316c1.254-.903 2.144-2.275 2.413-3.86h1.091c1.654 0 3-1.346 3-3 0-.714-.261-1.361-.679-1.877.442-.897.679-1.88.679-2.891v-.231c0-2.004-1.481-3.669-3.407-3.956l-.655-1.092c-1.464-2.438-4.138-3.952-6.981-3.952-2.174 0-4.218.847-5.755 2.384l-.625.625c-1.662 1.661-2.577 3.871-2.577 6.222 0 1.012.237 1.995.679 2.892-.418.515-.679 1.163-.679 1.877 0 1.654 1.346 3 3 3h1.091c.269 1.584 1.159 2.956 2.413 3.86l-.329 1.316-2.022.506c-1.057.264-2.034.729-2.903 1.382-2.035 1.525-3.25 3.955-3.25 6.498v7.226l-1.277 1.277 1.479 2.489c-.224.48-.412.965-.568 1.446h-.739l-.229-2.064c-.376-3.385-2.583-6.2-5.666-7.411v-1.525c2.757 0 5-2.243 5-5v-1.586l1.174-1.173-1.823-4.556c1.006-.916 1.649-2.221 1.649-3.685 0-1.654-1.346-3-3-3h-5.864c-5.037 0-9.136 4.098-9.136 9.136 0 3.85 2.402 7.259 6 8.574v1.835c-1.206.712-2 2.058-2 3.574v7.881 1 17h14v-6.787l5.064 5.064 2.489-1.479c.317.147.638.281.956.4l.714 2.802h7.555l.713-2.802c.318-.119.639-.253.956-.4l2.489 1.479 5.064-5.064v6.787h14v-17-1-1.198l.761-.635c2.058-1.715 3.239-4.234 3.239-6.914v-13.253c0-4.962-4.037-9-9-9zm-6 14v-2.414l-.826-.827 1.219-3.048c.507.174 1.042.289 1.607.289h1.541c.95 0 1.774.676 1.961 1.608l1.498 7.491v1.912c-.708.001-1.391.194-2 .548v-2.559h-2c-1.654 0-3-1.346-3-3zm5 9c0-.599.267-1.161.73-1.544.469-.387 1.064-.533 1.677-.416.908.177 1.593 1.069 1.593 2.078v3.882h-4zm-5.678 5.156c.263-2.368 1.683-4.368 3.709-5.436-.007.094-.031.185-.031.28v7h-3.883zm-7.771-15.492c1.533 1.149 2.449 2.981 2.449 4.898v5.226l-2.064-2.064-2.489 1.479c-.317-.147-.638-.281-.956-.4l-.714-2.803h-.019l.943-7.544.661.165c.796.199 1.533.55 2.189 1.043zm-8.871.43-.994 1.326-.332-2.652zm1.32 1.573 3.25 4.333h-6.5zm2.646-2.899-.332 2.652-.994-1.326zm4.354-9.768h-1v-2h1c.552 0 1 .449 1 1s-.448 1-1 1zm-15-1c0-.551.448-1 1-1h1v2h-1c-.552 0-1-.449-1-1zm3.172-3.007h-1.172v.007h-1c-.209 0-.413.022-.61.063-.252-.575-.39-1.195-.39-1.832 0-1.817.707-3.524 1.991-4.808l.625-.625c1.16-1.159 2.701-1.798 4.341-1.798 2.145 0 4.162 1.142 5.266 2.98l1.211 2.02h.566c1.103 0 2 .897 2 2v.231c0 .636-.138 1.256-.391 1.832-.197-.041-.4-.063-.609-.063h-1v-.007h-1.172c-1.557 0-3.021-.606-4.121-1.707l-.707-.708-.707.708c-1.101 1.1-2.564 1.707-4.121 1.707zm.828 1.957c1.466-.153 2.844-.712 4-1.622 1.156.91 2.534 1.468 4 1.622v3.043c0 2.206-1.794 4-4 4s-4-1.794-4-4zm4 9.043c.576 0 1.131-.086 1.658-.238l.235.939-1.893 1.892-1.893-1.893.235-.939c.527.152 1.082.239 1.658.239zm-10 8.569c0-1.917.916-3.748 2.45-4.898.655-.492 1.392-.843 2.188-1.042l.661-.165.943 7.543h-.019l-.713 2.802c-.318.119-.639.253-.956.4l-2.489-1.479-2.065 2.064zm-.764 8.817 3.143-3.143 2.095 1.246.493-.255c.56-.289 1.126-.526 1.685-.705l.528-.168.597-2.354h4.445l.598 2.354.528.168c.559.179 1.125.416 1.685.705l.493.255 2.095-1.246 3.143 3.143-1.246 2.095.255.493c.175.339.325.683.464 1.033h-1.237c-.307 0-.603.042-.89.108-1.483-3.09-4.623-5.108-8.11-5.108s-6.627 2.018-8.11 5.108c-.287-.066-.583-.108-.89-.108h-1.236c.136-.345.286-.69.464-1.033l.255-.493zm4.437 4.667c1.141-2.44 3.589-4.046 6.327-4.046s5.186 1.606 6.327 4.046c-.809.732-1.327 1.779-1.327 2.954s.518 2.222 1.327 2.955c-1.14 2.44-3.589 4.045-6.327 4.045s-5.186-1.606-6.327-4.046c.809-.732 1.327-1.779 1.327-2.954s-.518-2.222-1.327-2.954zm-8.995-2.89.205 1.844h-3.883v-7c0-.095-.024-.186-.031-.28 2.026 1.068 3.446 3.068 3.709 5.436zm.148-17.397-.826.827v2.414c0 1.654-1.346 3-3 3h-2v2.56c-.609-.354-1.293-.547-2-.548v-1.911l1.498-7.493c.187-.932 1.011-1.608 1.961-1.608h1.541c.565 0 1.1-.115 1.607-.289zm-13.826-1.623c0-3.935 3.201-7.136 7.136-7.136h5.864c.552 0 1 .449 1 1 0 1.654-1.346 3-3 3h-1.541c-1.9 0-3.55 1.353-3.922 3.215l-1.289 6.446c-2.566-1.133-4.248-3.676-4.248-6.525zm5.593 11.904c.137-.026.275-.04.41-.04.464 0 .903.156 1.267.456.463.383.73.945.73 1.544v4h-4v-3.882c0-1.009.685-1.901 1.593-2.078zm-1.593 7.96h4v1.586l-1.707 1.707 1.414 1.414 1.707-1.707h10.586c1.103 0 2 .897 2 2s-.897 2-2 2h-12c-2.206 0-4-1.794-4-4v-1zm10 9v2h-10v-3.54c1.063.954 2.462 1.54 4 1.54zm-3 9v-.586c0-.645.251-1.251.707-1.707l-1.414-1.414c-.834.834-1.293 1.942-1.293 3.121v.586h-5v-5h10v5zm5-5.531v-3.469h.635c.156.481.344.966.568 1.446zm20.621 3.295-2.095-1.246-.493.255c-.56.289-1.126.526-1.685.705l-.528.168-.597 2.354h-4.445l-.598-2.354-.528-.168c-.559-.179-1.125-.416-1.685-.705l-.493-.255-2.095 1.246-3.143-3.143 1.246-2.095-.255-.493c-.177-.343-.327-.688-.463-1.033h1.236c.307 0 .603-.042.89-.108 1.483 3.09 4.622 5.108 8.11 5.108s6.627-2.018 8.11-5.108c.288.066.583.108.89.108h1.237c-.137.345-.287.69-.464 1.033l-.255.493 1.246 2.095zm4.177-5.318c.223-.48.411-.963.568-1.446h.634v3.469zm3.202-1.446h6c1.538 0 2.937-.586 4-1.54v3.54h-10zm5 9v-.586c0-1.179-.459-2.287-1.293-3.121l-1.414 1.414c.456.456.707 1.063.707 1.707v.586h-3v-5h10v5zm5-15c0 2.206-1.794 4-4 4h-12c-1.103 0-2-.897-2-2s.897-2 2-2h10.586l1.707 1.707 1.414-1.414-1.707-1.707v-1.586h4v2zm4-9.747c0 1.846-.723 3.592-2 4.894v-4.029c0-1.516-.794-2.861-2-3.574v-2.544l-1.537-7.784c-.372-1.863-2.022-3.216-3.922-3.216h-1.541c-1.654 0-3-1.346-3-3 0-.551.448-1 1-1h6c3.859 0 7 3.14 7 7z"/></g></svg>