<svg id="Capa_1" enable-background="new 0 0 511.992 511.992" height="512" viewBox="0 0 511.992 511.992" width="512" xmlns="http://www.w3.org/2000/svg"><path d="m61.916 380.873c.89-.24 1.841.107 2.369.862 3.215 4.596 8.482 7.339 14.091 7.339s10.877-2.744 14.091-7.338c.528-.755 1.479-1.104 2.37-.863 5.417 1.453 11.216.17 15.513-3.436 4.296-3.605 6.568-9.093 6.076-14.68-.08-.917.427-1.794 1.262-2.184 5.084-2.368 8.7-7.079 9.674-12.601.975-5.523-.813-11.187-4.78-15.153-.651-.651-.828-1.648-.438-2.483 2.373-5.082 2.115-11.016-.689-15.873s-7.815-8.047-13.401-8.533c-.917-.08-1.693-.731-1.932-1.621-1.449-5.418-5.461-9.798-10.732-11.716-5.268-1.918-11.158-1.143-15.752 2.077-.754.529-1.767.53-2.521 0-4.595-3.219-10.481-3.996-15.752-2.077-5.271 1.918-9.282 6.298-10.731 11.716-.238.89-1.015 1.541-1.932 1.621-5.587.486-10.597 3.676-13.401 8.534-2.804 4.857-3.062 10.791-.689 15.873.39.834.214 1.833-.438 2.483-3.968 3.964-5.755 9.628-4.781 15.151s4.591 10.235 9.674 12.603c.835.389 1.342 1.267 1.261 2.185-.49 5.587 1.782 11.075 6.079 14.679 4.295 3.605 10.091 4.888 15.509 3.435zm-5.87-14.926c-.327-.275-.864-.884-.777-1.875.632-7.181-3.334-14.051-9.869-17.095-.902-.42-1.161-1.189-1.235-1.61s-.094-1.232.611-1.936c5.099-5.096 6.476-12.908 3.427-19.439-.421-.902-.126-1.658.088-2.028s.721-1.004 1.712-1.09c7.183-.626 13.26-5.725 15.121-12.689.258-.962.97-1.351 1.371-1.497s1.198-.306 2.013.266c5.903 4.136 13.834 4.138 19.739 0 .813-.572 1.61-.412 2.013-.266.401.146 1.113.535 1.371 1.496 1.861 6.964 7.938 12.064 15.121 12.689.992.086 1.498.72 1.712 1.09s.509 1.126.088 2.028c-3.05 6.533-1.672 14.345 3.428 19.439.704.704.686 1.516.611 1.936-.074.421-.334 1.19-1.236 1.61-6.535 3.044-10.501 9.914-9.869 17.095.087.992-.449 1.601-.777 1.875-.327.274-1.018.698-1.981.439-6.963-1.87-14.416.843-18.549 6.751-.57.816-1.373.938-1.801.938-.427 0-1.229-.122-1.8-.938-3.262-4.663-8.593-7.335-14.119-7.335-1.475 0-2.963.19-4.43.584-.962.26-1.656-.163-1.983-.438zm9.578-23.676c1.919 0 3.839-.732 5.303-2.196l3.953-3.953c2.93-2.929 2.93-7.678.001-10.606-2.929-2.929-7.678-2.93-10.606-.001l-3.953 3.953c-2.93 2.929-2.93 7.678-.001 10.606 1.464 1.464 3.383 2.197 5.303 2.197zm17.663 10.864c1.465 1.464 3.384 2.196 5.303 2.196 1.92 0 3.84-.733 5.304-2.197 2.929-2.929 2.929-7.678-.001-10.606l-2.188-2.187c-2.931-2.93-7.68-2.929-10.606.001-2.929 2.929-2.929 7.678.001 10.607zm394.095-123.417c2.372-5.082 2.114-11.016-.69-15.873-2.805-4.857-7.814-8.047-13.401-8.534-.917-.08-1.693-.731-1.932-1.621-1.449-5.418-5.461-9.797-10.731-11.715s-11.159-1.141-15.752 2.077c-.754.529-1.767.53-2.521 0-4.594-3.219-10.481-3.994-15.752-2.077-5.271 1.918-9.282 6.298-10.732 11.716-.238.89-1.015 1.541-1.932 1.621-5.587.486-10.598 3.676-13.401 8.533-2.805 4.857-3.063 10.791-.689 15.873.39.834.214 1.832-.438 2.483-3.968 3.964-5.755 9.628-4.781 15.152.974 5.523 4.59 10.234 9.674 12.603.835.389 1.342 1.267 1.262 2.184-.492 5.586 1.78 11.074 6.076 14.679 4.298 3.606 10.098 4.89 15.512 3.436.889-.24 1.842.108 2.37.863 3.215 4.595 8.483 7.339 14.092 7.339 5.607 0 10.876-2.744 14.091-7.338.528-.755 1.479-1.102 2.369-.863 5.419 1.454 11.217.169 15.513-3.436s6.567-9.092 6.076-14.679c-.08-.917.427-1.795 1.262-2.184 5.084-2.368 8.7-7.079 9.674-12.602s-.813-11.188-4.781-15.152c-.652-.652-.828-1.65-.438-2.485zm-9.554 15.031c-.074.42-.333 1.189-1.235 1.609-6.535 3.045-10.501 9.915-9.869 17.095.087.992-.449 1.6-.776 1.875s-1.021.695-1.983.439c-6.962-1.868-14.415.845-18.548 6.751-.57.816-1.373.938-1.8.938-.428 0-1.23-.122-1.801-.938-3.263-4.663-8.594-7.335-14.12-7.335-1.474 0-2.963.19-4.429.583-.959.258-1.655-.165-1.983-.439-.327-.275-.863-.883-.776-1.875.632-7.181-3.334-14.051-9.869-17.095-.902-.42-1.161-1.189-1.235-1.61s-.094-1.232.61-1.936c5.1-5.095 6.477-12.907 3.428-19.439-.421-.903-.126-1.658.088-2.028s.72-1.003 1.712-1.09c7.183-.626 13.26-5.725 15.121-12.688.258-.962.97-1.351 1.371-1.497.401-.145 1.196-.307 2.013.266 5.906 4.138 13.837 4.136 19.739 0 .816-.572 1.613-.411 2.013-.266.401.146 1.113.535 1.371 1.496 1.861 6.964 7.939 12.063 15.121 12.689.991.086 1.498.72 1.712 1.09s.509 1.126.088 2.028c-3.049 6.532-1.672 14.344 3.428 19.439.703.705.683 1.516.609 1.938zm-20.883-5.027c-2.93-2.929-7.678-2.929-10.607 0s-2.929 7.678 0 10.606l2.188 2.188c1.465 1.464 3.385 2.197 5.304 2.197s3.839-.732 5.304-2.197c2.929-2.929 2.929-7.678 0-10.606zm-27.433-14.825-3.952 3.952c-2.929 2.929-2.929 7.678 0 10.606 1.465 1.464 3.385 2.197 5.304 2.197s3.839-.732 5.304-2.197l3.952-3.952c2.929-2.929 2.929-7.678 0-10.606-2.931-2.929-7.679-2.929-10.608 0zm85.454 6.461c-2.657-2.656-3.375-6.728-1.786-10.133 3.306-7.081 2.946-15.349-.961-22.117s-10.89-11.214-18.675-11.892c-3.743-.326-6.91-2.984-7.882-6.614-2.02-7.549-7.609-13.652-14.952-16.325-7.347-2.674-15.55-1.591-21.95 2.895-3.076 2.156-7.211 2.156-10.287 0-.034-.024-.068-.047-.103-.071-6.385-4.425-14.539-5.483-21.848-2.824-1.467.534-2.86 1.21-4.172 2.002-11.904-18.697-32.371-30.053-54.916-30.053-30.653 0-56.794 20.879-63.569 50.773l-1.669 7.361c-1.287 5.679-2.493 11.377-3.65 17.085l-6.245-6.245c-1.351-1.35-2.094-3.145-2.094-5.054v-108.532c0-13.004-9.945-23.629-22.641-24.189-6.548-.295-12.734 2.039-17.45 6.552-4.72 4.516-7.318 10.599-7.318 17.129v109.042c0 1.909-.744 3.704-2.094 5.054l-6.245 6.245c-1.157-5.708-2.363-11.407-3.65-17.085l-1.667-7.362c-6.775-29.895-32.917-50.773-63.57-50.773-23.24 0-44.881 12.506-56.477 32.638-2.067 3.589-.834 8.175 2.756 10.242s8.176.834 10.242-2.756c8.926-15.497 25.586-25.124 43.479-25.124 23.6 0 43.725 16.074 48.941 39.089l1.669 7.361c12.315 54.33 18.56 110.125 18.56 165.835 0 26.448-18.922 48.881-44.992 53.339l-69.966 11.965c-21.443 3.667-42.574-6.001-54.184-23.361 1.156-.133 2.31-.34 3.451-.645.008-.003.016-.004.023-.006 3.63-.973 7.516.441 9.669 3.52 4.48 6.403 11.82 10.227 19.636 10.227 7.814 0 15.155-3.823 19.635-10.227 2.153-3.078 6.037-4.492 9.668-3.518 7.549 2.026 15.627.236 21.613-4.786 5.987-5.023 9.153-12.671 8.47-20.458-.329-3.742 1.737-7.323 5.144-8.909.03-.015.061-.029.092-.044 7.037-3.313 12.04-9.855 13.391-17.519 1.356-7.696-1.134-15.589-6.663-21.112-2.657-2.656-3.375-6.728-1.786-10.133 3.306-7.082 2.946-15.35-.961-22.118s-10.889-11.213-18.675-11.891c-3.743-.326-6.911-2.984-7.882-6.614-2.02-7.55-7.609-13.653-14.953-16.326s-15.549-1.592-21.949 2.895c-3.076 2.156-7.212 2.156-10.288-.001-3.83-2.683-8.307-4.138-12.859-4.31 4.085-10.573 8.657-20.977 13.684-31.065l12.563-25.216c1.848-3.708.339-8.21-3.368-10.057-3.708-1.848-8.211-.339-10.058 3.369l-12.563 25.216c-7.379 14.809-13.833 30.265-19.215 45.96-2.366 2.716-4.131 5.961-5.087 9.537-.971 3.63-4.139 6.288-7.883 6.613-7.785.678-14.766 5.123-18.674 11.891-3.907 6.768-4.267 15.037-.961 22.12 1.589 3.404.871 7.476-1.787 10.132-5.528 5.523-8.019 13.416-6.662 21.112 1.352 7.663 6.353 14.204 13.389 17.518.031.015.063.03.094.045 3.406 1.586 5.473 5.167 5.144 8.911-.595 6.778 1.729 13.449 6.291 18.377 9.648 28.107 36.337 46.648 65.438 46.648 3.833 0 7.712-.322 11.595-.986l69.966-11.965c33.296-5.694 57.463-34.345 57.463-68.124 0-31.543-1.97-63.111-5.865-94.436l17.572-17.572c1.351-1.35 3.145-2.094 5.055-2.094 1.909 0 3.704.743 5.054 2.093l17.574 17.574c-3.895 31.325-5.865 62.893-5.865 94.436 0 33.78 24.166 62.431 57.462 68.124l69.966 11.965c3.9.667 7.793.991 11.65.991 26.705-.002 51.563-15.544 62.939-40.474 1.72-3.769.059-8.217-3.71-9.937-3.768-1.72-8.218-.058-9.937 3.709-10.198 22.347-34.223 35.062-58.413 30.925l-69.966-11.965c-26.069-4.458-44.991-26.891-44.991-53.339 0-55.71 6.244-111.505 18.56-165.835l1.669-7.362c5.217-23.015 25.342-39.089 48.94-39.089 19.035 0 36.141 10.517 44.743 27.468-.225.626-.435 1.26-.608 1.909-.971 3.63-4.139 6.288-7.883 6.614-7.785.678-14.767 5.123-18.674 11.891s-4.267 15.037-.961 22.119c1.589 3.404.871 7.477-1.787 10.132-5.528 5.523-8.02 13.415-6.662 21.112 1.355 7.688 6.385 14.246 13.456 17.55.009.004.018.008.026.013 3.406 1.586 5.473 5.167 5.144 8.909-.001.022-.003.044-.005.067-.661 7.762 2.503 15.38 8.473 20.39 5.982 5.019 14.053 6.811 21.595 4.792.008-.002.015-.004.022-.006 3.625-.973 7.515.44 9.668 3.518 4.479 6.403 11.818 10.227 19.634 10.227h.001c5.186 0 10.157-1.692 14.228-4.696 4.12 18.001 6.898 36.353 8.232 54.734.286 3.947 3.577 6.958 7.473 6.958.183 0 .366-.007.551-.02 4.131-.3 7.237-3.892 6.938-8.023-1.537-21.176-4.9-42.32-9.979-62.966.622.031 1.244.103 1.861.269 7.55 2.026 15.629.235 21.616-4.788 5.969-5.009 9.134-12.627 8.473-20.389-.002-.022-.003-.045-.006-.067-.327-3.725 1.72-7.289 5.096-8.887.018-.008.034-.016.051-.023 7.084-3.3 12.123-9.864 13.48-17.56 1.35-7.702-1.14-15.595-6.669-21.119zm-459.782 158.959c-2.865.769-5.812.117-8.084-1.79s-3.428-4.696-3.167-7.652c.876-9.973-4.61-19.514-13.661-23.776-.031-.015-.063-.03-.094-.044-2.689-1.253-4.526-3.647-5.042-6.568-.515-2.922.394-5.801 2.492-7.898 7.105-7.1 9.025-17.986 4.776-27.088-1.255-2.688-1.124-5.704.359-8.272 1.483-2.569 4.03-4.191 6.986-4.448 10.007-.871 18.475-7.977 21.07-17.682.767-2.866 2.805-5.091 5.593-6.105 2.789-1.015 5.782-.62 8.211 1.082 8.228 5.766 19.28 5.765 27.506 0 2.429-1.703 5.423-2.097 8.209-1.083 2.788 1.015 4.827 3.241 5.594 6.108 2.596 9.704 11.064 16.809 21.072 17.68 2.955.257 5.501 1.878 6.984 4.447s1.614 5.586.359 8.274c-4.249 9.102-2.329 19.988 4.777 27.089 2.099 2.097 3.007 4.975 2.492 7.896-.516 2.921-2.354 5.316-5.043 6.569-.031.014-.063.029-.093.044-9.051 4.263-14.538 13.805-13.662 23.779.26 2.955-.895 5.744-3.167 7.65-2.271 1.907-5.216 2.56-8.085 1.79-9.702-2.605-20.089 1.177-25.848 9.408-1.7 2.43-4.377 3.824-7.343 3.825-2.967 0-5.645-1.395-7.346-3.825-4.545-6.497-11.974-10.222-19.675-10.222-2.046 0-4.113.263-6.148.807-.006.001-.014.003-.022.005zm192.615-299.212c0-2.398.955-4.632 2.688-6.291 1.731-1.657 4.012-2.512 6.419-2.404 4.577.202 8.302 4.331 8.302 9.204v31.999h-17.409zm0 47.508h17.409v27.756h-17.409zm33.893 111.811-9.528-9.528c-4.183-4.183-9.745-6.487-15.661-6.487-5.915 0-11.478 2.304-15.661 6.487l-9.527 9.527c-1.056-7.068-2.21-14.121-3.462-21.156l13.461-13.461c4.182-4.184 6.485-9.745 6.485-15.66v-18.777h17.409v18.777c0 5.916 2.304 11.477 6.486 15.661l13.46 13.46c-1.253 7.035-2.407 14.088-3.462 21.157zm225.164-.557c-.513 2.905-2.332 5.288-4.996 6.547-.017.007-.032.015-.049.023-9.085 4.232-14.607 13.773-13.757 23.756.002.022.004.044.005.066.26 2.955-.895 5.743-3.167 7.65-2.271 1.907-5.221 2.56-8.085 1.791-6.257-1.68-12.791-.691-18.192 2.422-.272.138-.529.295-.778.463-2.656 1.667-5.013 3.857-6.878 6.524-1.7 2.431-4.377 3.825-7.344 3.825s-5.645-1.395-7.345-3.825c-4.545-6.498-11.974-10.221-19.674-10.221-2.048 0-4.115.263-6.151.808-.008.002-.016.004-.023.006-2.865.769-5.813.116-8.084-1.79-2.272-1.907-3.427-4.695-3.167-7.65.001-.021.003-.043.005-.065.851-9.971-4.658-19.5-13.724-23.741-.012-.005-.024-.011-.036-.017-2.689-1.253-4.527-3.647-5.042-6.569-.516-2.922.393-5.8 2.492-7.897 7.105-7.1 9.025-17.986 4.776-27.088-1.255-2.689-1.124-5.704.359-8.273s4.029-4.19 6.985-4.448c10.008-.872 18.476-7.978 21.071-17.682.767-2.866 2.806-5.091 5.593-6.106 2.788-1.015 5.779-.621 8.209 1.083.034.024.069.048.103.071 8.215 5.695 19.211 5.67 27.404-.071 2.429-1.703 5.421-2.097 8.21-1.082 2.787 1.015 4.826 3.241 5.593 6.107 2.596 9.704 11.065 16.809 21.072 17.68 2.955.257 5.501 1.878 6.984 4.448 1.483 2.569 1.614 5.585.359 8.273-4.249 9.102-2.329 19.988 4.777 27.088 2.103 2.094 3.011 4.972 2.495 7.894z"/></svg>