<svg id="Capa_1" enable-background="new 0 0 511.59 511.59" height="512" viewBox="0 0 511.59 511.59" width="512" xmlns="http://www.w3.org/2000/svg"><g><path d="m348.519 275.743c-16.757-5.434-36.292-.844-52.135 5.437-.714-7.021-1.506-14.033-2.399-21.023-.444-3.479-3.241-6.186-6.733-6.517-79.596-7.528-160.316-7.528-239.922 0-3.492.331-6.289 3.037-6.733 6.517-3.882 30.398-6.079 61.196-6.529 91.539-.442 29.862 9.8 58.761 28.511 81.609h-55.079c-4.143 0-7.5 3.358-7.5 7.5 0 17.178 6.687 33.324 18.829 45.466 12.151 12.139 28.296 18.824 45.461 18.824h206c35.449 0 64.29-28.84 64.29-64.29 0-4.142-3.357-7.5-7.5-7.5h-55.078c4.741-5.789 8.942-11.962 12.558-18.446 3.267 5.901 9.177 9.771 15.891 10.373.627.059 1.253.088 1.879.088 3.238 0 6.44-.784 9.364-2.306 4.806-2.511 8.346-6.742 9.968-11.913 1.372-4.375 1.232-8.98-.359-13.193 3.237-3.52 9.682-8.03 15.926-12.401 10.929-7.645 23.315-16.309 32.161-28.224 11.922-16.046 14.507-34.56 7.477-53.535-5.176-13.991-14.979-23.676-28.348-28.005zm-203.179 157.562c-4.143 0-7.5 3.358-7.5 7.5s3.357 7.5 7.5 7.5h173.671c-3.624 23.631-24.092 41.79-48.721 41.79h-206c-13.161 0-25.541-5.127-34.857-14.433-7.516-7.516-12.305-17.035-13.87-27.357h99.777c4.143 0 7.5-3.358 7.5-7.5s-3.357-7.5-7.5-7.5h-32.413c-22.007-21.253-34.317-50.749-33.863-81.387.413-27.8 2.32-55.996 5.671-83.896 74.726-6.704 150.392-6.704 225.109 0 3.351 27.901 5.258 56.097 5.671 83.897.454 30.638-11.856 60.134-33.863 81.387h-106.312zm155.174-81.61c-.135-9.078-.445-18.199-.891-27.336 2.917-1.515 5.808-2.91 8.632-4.145 14.409-6.292 23.78-7.161 27.735-5.88.733.238 1.737.565 2.823 3.502 4.067 10.995-.578 17.429-24.882 34.445-4.793 3.357-9.444 6.622-13.72 10.073.249-3.533.356-7.088.303-10.659zm56.833-3.355c-7.396 9.962-18.723 17.886-28.718 24.877-7.873 5.511-15.311 10.716-19.598 15.954-3.903 4.807-4.498 8.687-2.042 13.415.654 1.25.782 2.68.36 4.026-.423 1.348-1.347 2.451-2.593 3.102-.91.474-1.913.677-2.935.581-1.801-.161-3.375-1.214-4.211-2.814-4.509-8.633-3.449-16.816 3.234-25.008 5.187-6.344 13.203-11.958 21.721-17.924 12.935-9.057 21.461-15.743 26.766-23.12 6.311-8.774 7.472-18.193 3.55-28.795-2.427-6.562-6.435-10.671-12.261-12.565-11.249-3.645-27.074 1.468-38.374 6.402-1.183.517-2.375 1.06-3.573 1.622-.258-3.758-.543-7.516-.853-11.274 14.022-6.101 32.011-11.368 46.074-6.806 8.97 2.905 15.329 9.277 18.904 18.943 5.333 14.389 3.55 27.271-5.451 39.384z"/><path d="m143.481 233.329c0 4.142 3.357 7.5 7.5 7.5s7.5-3.358 7.5-7.5c0-5.671 2.542-8.273 6.391-12.212 4.5-4.605 10.662-10.912 10.662-22.694s-6.162-18.089-10.662-22.694c-3.849-3.939-6.391-6.541-6.391-12.212 0-5.669 2.542-8.271 6.391-12.208 4.5-4.605 10.662-10.911 10.662-22.692 0-4.142-3.357-7.5-7.5-7.5s-7.5 3.358-7.5 7.5c0 5.669-2.542 8.271-6.391 12.208-4.499 4.605-10.662 10.911-10.662 22.692 0 11.782 6.162 18.089 10.662 22.695 3.849 3.938 6.391 6.541 6.391 12.211s-2.542 8.272-6.391 12.211c-4.499 4.605-10.662 10.913-10.662 22.695z"/><path d="m105.786 233.329c0 4.142 3.357 7.5 7.5 7.5s7.5-3.358 7.5-7.5c0-5.671 2.542-8.273 6.391-12.212 4.5-4.605 10.662-10.912 10.662-22.694s-6.162-18.089-10.662-22.694c-3.849-3.939-6.391-6.541-6.391-12.212 0-4.142-3.357-7.5-7.5-7.5s-7.5 3.358-7.5 7.5c0 11.782 6.162 18.089 10.662 22.695 3.849 3.938 6.391 6.541 6.391 12.211s-2.542 8.272-6.391 12.211c-4.5 4.605-10.662 10.913-10.662 22.695z"/><path d="m481.309 53.039c-2.659-3.175-7.391-3.593-10.565-.933s-3.593 7.39-.933 10.566c2.659 3.174 5.111 6.495 7.396 9.916l-6.689 3.862c-3.587 2.071-4.816 6.658-2.745 10.245 1.39 2.406 3.91 3.751 6.502 3.751 1.272 0 2.562-.324 3.743-1.006l6.687-3.861c6.646 13.481 10.62 28.206 11.612 43.32h-18.121c-4.143 0-7.5 3.358-7.5 7.5s3.357 7.5 7.5 7.5h18.143c-1.002 15.469-5.077 30.112-11.623 43.326l-6.698-3.867c-3.586-2.072-8.175-.843-10.245 2.745-2.071 3.587-.842 8.174 2.745 10.245l6.679 3.856c-8.395 12.525-19.184 23.314-31.709 31.708l-3.856-6.679c-2.07-3.588-6.659-4.817-10.245-2.745-3.587 2.071-4.816 6.658-2.745 10.245l3.866 6.697c-13.214 6.545-27.857 10.62-43.325 11.622v-18.142c0-4.142-3.357-7.5-7.5-7.5s-7.5 3.358-7.5 7.5v18.142c-15.469-1.002-30.112-5.077-43.326-11.622l3.866-6.697c2.071-3.587.842-8.174-2.745-10.245-3.589-2.072-8.175-.842-10.245 2.745l-3.856 6.678c-12.524-8.395-23.313-19.184-31.707-31.71l6.677-3.855c3.587-2.071 4.816-6.658 2.745-10.245-2.072-3.588-6.66-4.815-10.245-2.745l-6.694 3.865c-6.544-13.213-10.619-27.856-11.621-43.324h18.137c4.143 0 7.5-3.358 7.5-7.5s-3.357-7.5-7.5-7.5h-18.138c1.001-15.469 5.075-30.111 11.62-43.325l6.696 3.866c1.182.682 2.471 1.006 3.743 1.006 2.592 0 5.113-1.345 6.502-3.751 2.071-3.587.842-8.174-2.745-10.245l-6.678-3.855c8.394-12.525 19.183-23.314 31.708-31.709l3.855 6.678c1.389 2.406 3.91 3.751 6.502 3.751 1.272 0 2.562-.324 3.743-1.006 3.587-2.071 4.816-6.658 2.745-10.245l-3.866-6.697c13.214-6.545 27.857-10.62 43.326-11.621v18.14c0 4.142 3.357 7.5 7.5 7.5s7.5-3.358 7.5-7.5v-18.129c15.204.973 29.855 4.9 43.343 11.582l-3.884 6.727c-2.071 3.587-.842 8.174 2.745 10.245 1.182.682 2.471 1.006 3.743 1.006 2.592 0 5.113-1.345 6.502-3.751l3.876-6.714c1.328.891 2.644 1.807 3.941 2.757 3.341 2.446 8.034 1.722 10.482-1.62 2.446-3.342 1.721-8.035-1.621-10.482-22.343-16.362-48.841-25.01-76.629-25.01-71.627 0-129.899 58.273-129.899 129.9 0 71.632 58.272 129.91 129.899 129.91 71.633 0 129.91-58.277 129.91-129.91 0-30.444-10.754-60.047-30.281-83.356z"/><path d="m358.589 96.583v16.723h-33.78c-12.733 0-23.093 10.36-23.093 23.093 0 12.734 10.359 23.094 23.093 23.094h56.874.001c12.733-.001 23.092-10.36 23.092-23.094v-39.816c0-12.734-10.359-23.093-23.094-23.093-12.734 0-23.093 10.359-23.093 23.093zm-41.873 39.816c0-4.463 3.631-8.093 8.093-8.093h33.78v8.093c0 2.847.521 5.573 1.467 8.094h-35.248c-4.461-.001-8.092-3.631-8.092-8.094zm73.059-39.816v39.816c0 4.463-3.631 8.094-8.094 8.094-4.462 0-8.093-3.631-8.093-8.094v-39.816c0-4.463 3.631-8.093 8.093-8.093 4.464 0 8.094 3.63 8.094 8.093z"/></g></svg>