<svg id="Layer_1" enable-background="new 0 0 510 510" height="512" viewBox="0 0 510 510" width="512" xmlns="http://www.w3.org/2000/svg"><g><path d="m510 217.5h-53.266c-19.308-87.982-92.779-153.916-182.136-163.738-8.26-9.929-20.703-16.262-34.598-16.262h-90c-24.813 0-45 20.187-45 45 0 5.488.987 10.749 2.794 15.616-60.458 6.135-107.794 57.335-107.794 119.384v120h55.377c29.865 78.324 105.963 135 196.204 135 90.236 0 166.337-56.67 196.204-135h62.215zm-263.787 90 60-60h53.787v60zm90-90 60.75-60.75c13.213 18.021 23.168 38.563 28.922 60.75-20.155 0-71.814 0-89.672 0zm-255.07-13.012c24.394-11.121 51.1-16.988 78.71-16.988h35.147c24.814 0 45-20.186 45-45 0-5.257-.906-10.307-2.57-15h2.57c23.768 0 43.276-18.523 44.881-41.891 35.313 6.701 67.322 23.975 92.364 48.433l-83.458 83.458h-216.526c1.129-4.387 2.426-8.729 3.882-13.012zm38.857-76.988h30v-30c-8.271 0-15-6.729-15-15s6.729-15 15-15h90c8.271 0 15 6.729 15 15s-6.729 15-15 15h-45v30c8.271 0 15 6.729 15 15s-6.729 15-15 15h-35.148c-46.626 0-91.278 14.824-127.824 40.953 8.763-40.509 44.879-70.953 87.972-70.953zm-90 120h233.787l-60 60h-173.787zm57.875 90h85.912l-50.977 50.977c-14.292-14.623-26.18-31.789-34.935-50.977zm163.706 105c-39.193 0-76-12.517-106.02-34.349l70.651-70.651h199.074c-29.005 63.572-92.404 105-163.705 105zm228.419-135h-90v-60h90z"/></g></svg>