<svg id="_x31__px" enable-background="new 0 0 24 24" height="512" viewBox="0 0 24 24" width="512" xmlns="http://www.w3.org/2000/svg"><path d="m10.5 6.5c-.276 0-.5-.224-.5-.5v-5.457c0-.276.224-.5.5-.5s.5.224.5.5v5.457c0 .276-.224.5-.5.5z"/><path d="m5 11c-.145 0-.289-.063-.388-.184-.175-.213-.143-.528.071-.704l5.5-4.5c.184-.15.449-.15.633 0l4.61 3.77c.214.175.246.49.071.704s-.49.245-.704.071l-4.293-3.511-5.184 4.241c-.092.076-.204.113-.316.113z"/><path d="m2.055 17.999c-.35 0-.697-.107-1.005-.318-.648-.442-1.05-1.284-1.05-2.196v-2.12c0-4.323 1.979-8.291 5.041-10.109.563-.335 1.208-.342 1.774-.02.731.416 1.185 1.29 1.185 2.281v6.951c0 1.993-1.016 3.73-2.529 4.322l-2.783 1.089c-.206.08-.42.12-.633.12zm.451-.586h.01zm3.438-13.413c-.119 0-.252.032-.393.115-2.764 1.643-4.551 5.273-4.551 9.25v2.12c0 .586.235 1.111.614 1.37.157.107.407.21.709.092l2.783-1.089c1.116-.437 1.894-1.831 1.894-3.391v-6.95c0-.623-.267-1.177-.68-1.412-.098-.056-.226-.105-.376-.105z"/><path d="m3.5 14c-.075 0-.151-.017-.223-.053-.247-.124-.347-.424-.224-.671l1.362-2.724-1.315-1.752c-.166-.221-.121-.534.1-.7.22-.166.534-.121.7.1l1.5 2c.114.151.132.354.047.523l-1.5 3c-.088.176-.264.277-.447.277z"/><path d="m13.5 11.61c-.276 0-.5-.224-.5-.5v-5.59c0-.997.456-1.873 1.189-2.288.564-.318 1.209-.307 1.769.03 1.518.904 2.794 2.335 3.69 4.136.305.63.566 1.292.779 1.973.083.263-.064.544-.328.626-.265.082-.544-.064-.626-.328-.199-.634-.442-1.25-.723-1.832-.807-1.624-1.951-2.911-3.306-3.718-.317-.191-.59-.115-.763-.017-.413.234-.681.791-.681 1.418v5.59c0 .276-.224.5-.5.5z"/><path d="m16.5 18c-.174 0-.343-.091-.435-.253-.137-.24-.053-.545.188-.682l.168-.096c.523-.297.715-.792.478-1.232-.131-.243-.041-.546.203-.677.243-.133.546-.04.677.203.5.925.136 2.009-.864 2.577l-.168.095c-.078.044-.163.065-.247.065z"/><path d="m17.5 21c-.045 0-.09-.006-.135-.019-.266-.075-.421-.351-.347-.616.139-.495.45-.897.876-1.133.455-.251 1.009-.3 1.56-.138l.187.055c.265.079.416.357.337.622-.078.265-.354.417-.622.337l-.186-.055c-.294-.087-.574-.067-.792.054-.193.107-.331.29-.398.528-.061.221-.261.365-.48.365z"/><path d="m16.447 24c-.102 0-.205-.015-.309-.05-.493-.168-.705-.657-.892-1.088-.083-.192-.198-.457-.285-.522-.085-.065-.358-.098-.557-.122-.43-.052-.965-.116-1.266-.548-.291-.417-.191-.932-.104-1.386.043-.226.098-.507.06-.63-.033-.105-.233-.297-.38-.437-.318-.305-.714-.684-.714-1.217s.396-.912.715-1.217c.146-.14.347-.332.38-.438.038-.123-.016-.404-.06-.63-.087-.454-.186-.967.104-1.385.301-.433.835-.497 1.265-.548.199-.024.471-.057.557-.122.087-.066.202-.33.286-.523.187-.431.399-.92.892-1.087.485-.164.95.108 1.323.328.179.106.425.25.538.25s.359-.145.539-.25c.373-.22.838-.492 1.323-.328.493.168.705.657.892 1.088.083.192.198.457.285.522.085.065.358.098.557.122.43.052.965.116 1.266.548.291.417.191.932.104 1.386-.043.226-.098.507-.06.63.033.105.233.297.38.437.318.305.714.684.714 1.217s-.396.912-.715 1.217c-.146.14-.347.332-.38.438-.038.123.016.404.06.63.087.454.186.967-.104 1.385-.301.433-.835.497-1.265.548-.199.024-.471.057-.557.122-.087.066-.202.33-.286.523-.187.431-.399.92-.892 1.087-.487.165-.95-.108-1.323-.328-.179-.106-.425-.25-.538-.25s-.359.145-.539.25c-.293.172-.642.378-1.014.378zm.006-11c-.001 0-.003 0-.004 0-.07.043-.21.364-.285.536-.148.342-.302.696-.596.92-.302.23-.696.277-1.044.319-.176.021-.505.061-.563.126-.047.083.021.436.057.625.068.353.145.753.033 1.116-.11.353-.381.612-.644.863-.153.146-.407.39-.407.495s.254.349.407.494c.262.251.534.511.644.863.112.362.035.762-.033 1.115-.037.189-.104.541-.057.626.058.064.387.104.563.125.348.042.741.089 1.043.318.294.225.448.578.597.92.075.172.214.494.3.541.075 0 .334-.153.489-.244.31-.183.66-.389 1.046-.389s.737.207 1.046.389c.155.091.416.252.505.24.07-.043.21-.364.285-.536.148-.342.302-.696.596-.92.302-.23.696-.277 1.044-.319.176-.021.505-.061.563-.126.047-.083-.021-.436-.057-.625-.068-.353-.145-.753-.033-1.116.11-.353.381-.612.644-.863.154-.144.408-.388.408-.493s-.254-.349-.407-.494c-.262-.251-.534-.511-.644-.863-.112-.362-.035-.762.033-1.115.037-.189.104-.541.057-.626-.058-.064-.387-.104-.563-.125-.348-.042-.741-.089-1.043-.318-.294-.225-.448-.578-.597-.92-.075-.172-.214-.494-.3-.541-.075 0-.334.153-.489.244-.31.183-.66.389-1.046.389s-.737-.207-1.046-.389c-.154-.092-.408-.242-.502-.242z"/></svg>