<?xml version="1.0" encoding="UTF-8"?>
<svg width="351.67" height="330.72" viewBox="0 0 351.665 330.719" xmlns="http://www.w3.org/2000/svg">
 <path d="m170.87 149.95v15.312c-14.146 2.938-20.875 15.625-16.812 29.688l-13 7.625c-55.688-75.083-163.86-14.417-132.02 71.417-29.667-68.667 18.5-132.67 74.583-139.42-21.916-58.584 13.417-126.42 81.063-133.69-87.312 15.603-86.479 138.44 6.188 149.06z"/>
 <path d="m145.05 210.44 13.261-7.656c9.617 10.783 23.97 10.266 34.116-0.283l13.104 7.445c-37.181 85.769 69.441 149.11 127.86 78.625-44.634 60.025-124.14 50.312-158.03 5.117-39.777 48.273-116.19 51.591-156.31-3.357 57.168 67.813 163.13 5.675 126-79.891z"/>
 <path d="m210.76 202.17-13.262-7.656c4.529-13.72-3.094-25.891-17.303-29.403l-0.104-15.071c92.869-10.686 94.413-134.69 4.162-150.04 74.301 8.642 105.64 82.355 83.446 134.3 61.694 10.312 102.77 74.827 75.246 137.05 30.144-83.416-76.649-144.11-132.18-69.173z"/>
 <path d="m120.25 112.88 16.75 16.938c22.938-17.5 57.688-13.75 77.188-0.438l15.875-16.5c-30.438-24.729-76.772-24.729-109.81 0z"/>
 <path d="m268.16 177.75-23.043 6.038c3.687 28.614-16.936 56.833-38.215 67.065l6.352 21.998c36.634-13.996 59.801-54.121 54.906-95.101z"/>
 <path d="m138.18 272.6 6.293-22.976c-26.624-11.113-40.751-43.083-38.973-66.627l-22.227-5.498c-6.196 38.724 16.971 78.85 54.907 95.101z"/>
</svg>
