<svg id="Layer_1" enable-background="new 0 0 512 512" height="512" viewBox="0 0 512 512" width="512" xmlns="http://www.w3.org/2000/svg"><g><g><path d="m217.081 157.295c-4.143 0-7.5 3.358-7.5 7.5v2.977c0 4.142 3.357 7.5 7.5 7.5s7.5-3.358 7.5-7.5v-2.977c0-4.142-3.357-7.5-7.5-7.5z"/><path d="m202.773 146.739 24.235 3.401c.354.05.704.074 1.052.074 3.68 0 6.892-2.71 7.417-6.458.576-4.102-2.282-7.894-6.385-8.47l-24.235-3.401c-4.096-.579-7.894 2.283-8.469 6.385-.575 4.101 2.283 7.893 6.385 8.469z"/><path d="m294.749 157.295c-4.143 0-7.5 3.358-7.5 7.5v2.977c0 4.142 3.357 7.5 7.5 7.5s7.5-3.358 7.5-7.5v-2.977c0-4.142-3.357-7.5-7.5-7.5z"/><path d="m283.798 150.214c.348 0 .698-.024 1.052-.074l24.235-3.401c4.103-.576 6.961-4.368 6.385-8.47-.575-4.103-4.371-6.96-8.469-6.385l-24.235 3.401c-4.103.576-6.961 4.368-6.385 8.47.525 3.749 3.737 6.459 7.417 6.459z"/><path d="m246.249 260.056h19.474c4.143 0 7.5-3.358 7.5-7.5s-3.357-7.5-7.5-7.5h-19.474c-4.143 0-7.5 3.358-7.5 7.5s3.357 7.5 7.5 7.5z"/><path d="m246.249 234.998h19.474c4.143 0 7.5-3.358 7.5-7.5s-3.357-7.5-7.5-7.5h-19.474c-4.143 0-7.5 3.358-7.5 7.5s3.357 7.5 7.5 7.5z"/><path d="m284.272 396.642c0 26.127 21.256 47.383 47.383 47.383 26.126 0 47.382-21.256 47.382-47.383s-21.256-47.384-47.382-47.384c-26.127 0-47.383 21.256-47.383 47.384zm79.765 0c0 17.856-14.526 32.383-32.382 32.383s-32.383-14.527-32.383-32.383 14.527-32.384 32.383-32.384 32.382 14.527 32.382 32.384z"/><path d="m324.155 382.979v6.163h-6.163c-4.143 0-7.5 3.358-7.5 7.5s3.357 7.5 7.5 7.5h6.163v6.134c0 4.142 3.357 7.5 7.5 7.5s7.5-3.358 7.5-7.5v-6.134h6.162c4.143 0 7.5-3.358 7.5-7.5s-3.357-7.5-7.5-7.5h-6.162v-6.163c0-4.142-3.357-7.5-7.5-7.5s-7.5 3.357-7.5 7.5z"/><path d="m456.733 355.48c-2.288-3.455-6.94-4.4-10.394-2.113s-4.399 6.941-2.112 10.395c9.818 14.827 14.797 31.211 14.797 48.697v84.541h-61.732v-46.472c0-4.142-3.357-7.5-7.5-7.5s-7.5 3.358-7.5 7.5v46.472h-118.792v-161.606c14.678-1.287 38.304-5.572 50.187-19.631 2.674-3.164 2.276-7.896-.887-10.569-3.167-2.674-7.897-2.276-10.57.887-6.157 7.284-20.634 12.535-38.729 14.264v-33.019h7.184c48.587 0 88.115-39.529 88.115-88.118v-32.258c0-1.41-.065-2.866-.193-4.462h32.076v27.876c0 55.163-14.778 80.422-38.624 103.297-1.973 1.893-2.759 4.708-2.053 7.35s2.793 4.688 5.447 5.344c24.596 6.072 49.021 18.238 67.012 33.38 1.406 1.184 3.12 1.762 4.825 1.762 2.137 0 4.259-.908 5.742-2.67 2.667-3.169 2.26-7.9-.909-10.568-16.653-14.016-38.276-25.686-60.735-32.947 20.905-23.11 34.295-51.885 34.295-104.946v-36.029c0-46.024-15.215-85.224-44-113.36-27.033-26.425-64.565-40.977-105.683-40.977-42.516 0-80.928 15.424-108.159 43.431-2.888 2.97-2.821 7.718.148 10.605 2.971 2.889 7.72 2.82 10.605-.148 24.385-25.077 58.977-38.888 97.406-38.888 77.073 0 131.547 54.127 134.546 132.487h-31.747v-13.732c0-11.856-6.483-16.426-14.974-19.992l5.286-7.349c2.418-3.362 1.653-8.049-1.709-10.468-3.364-2.418-8.05-1.655-10.469 1.709l-7.698 10.702c-7.66-2.33-16.39-4.205-25.783-5.628l2.652-13.476c.801-4.064-1.846-8.007-5.91-8.807-4.063-.797-8.007 1.846-8.807 5.911l-2.861 14.539c-8.125-.781-16.539-1.259-25.025-1.436v-15.169c0-4.142-3.357-7.5-7.5-7.5s-7.5 3.358-7.5 7.5v15.17c-8.477.178-16.881.655-24.997 1.435l-2.861-14.539c-.799-4.063-4.733-6.709-8.807-5.911-4.064.8-6.711 4.743-5.91 8.807l2.652 13.476c-8.645 1.31-16.726 3.004-23.934 5.08l-8.527-11.854c-2.419-3.363-7.107-4.127-10.469-1.709s-4.127 7.105-1.709 10.468l6 8.342c-9.329 3.692-16.709 8.047-16.709 20.699v13.732h-31.802c.897-24.708 6.664-47.038 17.207-66.448 1.977-3.64.629-8.193-3.011-10.17-3.642-1.979-8.194-.628-10.171 3.011-12.716 23.412-19.164 50.48-19.164 80.455v36.029c0 53.057 13.389 81.828 34.294 104.925-52.891 16.892-102.607 57.995-102.607 117.17v92.041c0 4.142 3.357 7.5 7.5 7.5h421.049c4.143 0 7.5-3.358 7.5-7.5v-92.041c-.001-20.482-5.818-39.653-17.292-56.979zm-288.504-221.725c0-3.765 0-4.072 11.102-8.227 1.713-.641 3.568-1.336 5.569-2.119 36.637-12.025 105.589-12.026 142.228 0 2.001.783 3.855 1.478 5.569 2.119 11.102 4.155 11.102 4.462 11.102 8.227v21.289c0 11.957-4.212 22.445-12.18 30.331-8.07 7.987-19.521 12.543-31.493 12.543-.162 0-.326-.001-.488-.002-19.67-.184-23.203-4.589-28.107-10.704-3.807-4.715-9.423-7.41-15.432-7.41-.066 0-.133 0-.197 0-5.99 0-11.598 2.695-15.418 7.429-4.89 6.097-8.423 10.501-28.101 10.686-.162.001-.324.002-.487.002-11.964 0-23.416-4.557-31.486-12.543-6.712-6.643-10.746-15.137-11.855-24.795-.017-.27-.046-.538-.091-.801-.151-1.551-.233-3.128-.233-4.734v-21.291zm-.028 60.556c.541.584 1.088 1.163 1.656 1.725 10.862 10.75 26.152 16.882 42.035 16.882.212 0 .426-.001.639-.003 22.639-.211 31.116-5.655 39.639-16.281.94-1.166 2.3-1.832 3.734-1.832.031 0 .065.001.096 0h.097c1.451 0 2.82.666 3.747 1.813 8.537 10.645 17.015 16.088 39.646 16.3.213.002.425.003.639.003 15.889 0 31.181-6.133 42.042-16.882.558-.553 1.096-1.122 1.628-1.696v4.867c0 40.317-32.8 73.118-73.115 73.118h-29.367c-40.315 0-73.115-32.8-73.115-73.118v-4.896zm80.299 126.033c-18.113-1.728-32.589-6.976-38.723-14.256-2.668-3.167-7.399-3.572-10.568-.902-3.167 2.669-3.571 7.401-.902 10.568 11.854 14.067 35.502 18.353 50.193 19.64v161.606h-122.931v-46.472c0-4.142-3.357-7.5-7.5-7.5s-7.5 3.358-7.5 7.5v46.472h-57.593v-84.541c0-63.603 65.102-96.622 103.568-106.104 2.656-.655 4.744-2.703 5.451-5.346.706-2.643-.082-5.46-2.058-7.352-23.86-22.861-38.648-48.115-38.648-103.293v-27.876h32.094c-.118 1.439-.182 2.912-.182 4.462v32.258c0 48.588 39.528 88.118 88.115 88.118h7.184z"/></g></g></svg>