<?xml version="1.0" encoding="UTF-8"?>
<svg viewBox="0 0 268.08374 370.63602" xmlns="http://www.w3.org/2000/svg">
 <g transform="translate(-149.31 -167.76)">
  <path transform="matrix(.26721 -.066849 .0716 .24949 221.72 269.33)" d="m542.64 583.58-439.15-117.67-439.15-117.67 321.48-321.48 321.48-321.48 117.67 439.15 117.67 439.15z" fill="#ff0" fill-rule="evenodd" stroke="#000" stroke-dashoffset="2" stroke-linecap="round" stroke-linejoin="round" stroke-width="56.115"/>
  <path d="m273.4 297.17-2.7368-40.966c-0.51316-7.9822-0.76973-13.712-0.76972-17.19-1e-5 -4.7322 1.2401-8.424 3.7203-11.075s5.7444-3.9768 9.7926-3.9769c4.9034 1.2e-4 8.1818 1.6964 9.8353 5.0887s2.4802 8.2817 2.4802 14.667c-4e-5 3.7632-0.1996 7.5833-0.59867 11.46l-3.6776 42.164c-0.39915 5.0175-1.2544 8.8661-2.5657 11.546s-3.478 4.0197-6.4999 4.0196c-3.0789 4e-5 -5.217-1.2971-6.4143-3.8914s-2.0526-6.5426-2.5657-11.845zm9.4932 56.275c-3.478 0-6.5142-1.1261-9.1084-3.3782s-3.8914-5.4023-3.8914-9.4505c-1e-5 -3.535 1.2401-6.5426 3.7203-9.0228s5.5163-3.7203 9.1084-3.7203 6.6566 1.2401 9.1939 3.7203 3.8058 5.4878 3.8058 9.0228c-4e-5 3.9912-1.2829 7.127-3.8486 9.4077s-5.5591 3.421-8.9801 3.421z" fill="#f00"/>
  <path d="m154.31 401.58h258.08v131.81h-258.08v-131.81z" fill="#f00" fill-rule="evenodd" stroke="#000" stroke-dashoffset="2" stroke-linecap="round" stroke-linejoin="round" stroke-width="10"/>
  <path d="m200.42 422.63h14.487c2.8557 3e-5 5.1626 0.38749 6.9205 1.1624s3.2109 1.8871 4.359 3.3365 1.9803 3.1356 2.497 5.0585 0.77489 3.9608 0.77492 6.1133c-3e-5 3.3724-0.38391 5.9878-1.1516 7.8461s-1.8333 3.4154-3.1966 4.6711-2.8271 2.0916-4.3912 2.5078c-2.1382 0.57402-4.0756 0.86103-5.8119 0.86103h-14.487v-31.557zm9.7512 7.1465v17.242h2.3894c2.0378 1e-5 3.4872-0.22601 4.3482-0.67806s1.5355-1.2413 2.0234-2.3678 0.73185-2.9526 0.73187-5.4783c-2e-5 -3.3436-0.54534-5.6325-1.636-6.8667s-2.8988-1.8512-5.4245-1.8512h-2.4324zm31.794 8.9547-8.3735-0.88256c0.31571-1.4637 0.77134-2.6154 1.3669-3.4549s1.453-1.5678 2.5723-2.1849c0.80362-0.44484 1.9086-0.78926 3.315-1.0332s2.9275-0.36591 4.5635-0.36593c2.6261 2e-5 4.7356 0.14711 6.3286 0.44127s2.9203 0.90769 3.9823 1.8404c0.7462 0.6458 1.3346 1.5606 1.7651 2.7445s0.64574 2.314 0.64577 3.3903v10.096c-3e-5 1.0763 0.06814 1.9194 0.20449 2.5293s0.43408 1.3884 0.89332 2.3355h-8.2228c-0.33008-0.58837-0.54534-1.0368-0.64577-1.3454s-0.20093-0.79286-0.30136-1.453c-1.1481 1.105-2.2889 1.8943-3.4226 2.3678-1.5499 0.63142-3.3508 0.94713-5.403 0.94713-2.7266 0-4.7967-0.63142-6.2102-1.8943s-2.1203-2.8199-2.1203-4.6711c0-1.7364 0.50944-3.1643 1.5283-4.2836s2.8988-1.9516 5.6397-2.497c3.2862-0.6601 5.4173-1.1229 6.3931-1.3884s2.009-0.61346 3.0997-1.044c-2e-5 -1.0763-0.22245-1.8297-0.6673-2.2602s-1.227-0.64575-2.3463-0.64577c-1.4351 2e-5 -2.5113 0.22963-3.2289 0.68883-0.55968 0.35878-1.0117 1.0332-1.3561 2.0234zm7.5986 4.6065c-1.2055 0.43053-2.4611 0.81081-3.767 1.1409-1.7795 0.47357-2.906 0.93996-3.3795 1.3992-0.48792 0.47357-0.73188 1.0117-0.73187 1.6144-1e-5 0.68883 0.24036 1.2521 0.72111 1.6898s1.1875 0.65654 2.1203 0.65653c0.97582 1e-5 1.8835-0.23677 2.723-0.71035s1.435-1.0512 1.7866-1.7328 0.52736-1.5678 0.52738-2.6584v-1.3992zm13.863-12.011h8.1582v3.724c1.2198-1.5211 2.4539-2.6082 3.7024-3.2611s2.7696-0.9794 4.5634-0.97942c2.4252 2e-5 4.3231 0.72113 5.6936 2.1633s2.0557 3.6702 2.0557 6.6837v14.53h-8.804v-12.571c-1e-5 -1.435-0.2655-2.4503-0.79645-3.0459s-1.2772-0.8933-2.2387-0.89332c-1.062 2e-5 -1.923 0.40183-2.5831 1.2054s-0.9902 2.2459-0.99019 4.3267v10.978h-8.761v-22.86zm45.355 0h8.2013v21.59l0.02152 1.0117c-3e-5 1.435-0.30497 2.8019-0.91484 4.1007s-1.4207 2.3499-2.4324 3.1535-2.2961 1.3848-3.8531 1.7436-3.3401 0.53813-5.3491 0.53814c-4.5922-1e-5 -7.7457-0.68883-9.4606-2.0665s-2.5723-3.2217-2.5723-5.5321c0-0.28701 0.01435-0.67448 0.04306-1.1624l8.5027 0.96866c0.21525 0.78927 0.54531 1.3346 0.99018 1.636 0.64576 0.44486 1.4566 0.6673 2.4324 0.6673 1.2628 0 2.2064-0.33724 2.8306-1.0117s0.93635-1.8512 0.93636-3.5302v-3.4656c-0.86104 1.0189-1.7221 1.7579-2.5831 2.2172-1.349 0.71752-2.8055 1.0763-4.3697 1.0763-3.0567 0-5.5249-1.3346-7.4048-4.0038-1.3346-1.8943-2.0019-4.3984-2.0019-7.5125 0-3.5589 0.86102-6.2712 2.5831-8.1367s3.9751-2.7983 6.7591-2.7983c1.7794 2e-5 3.2468 0.30138 4.402 0.90408s2.2351 1.6001 3.2396 2.9921v-3.3795zm-8.2444 11.086c-1e-5 1.6503 0.35157 2.8737 1.0548 3.6701s1.6288 1.1947 2.7768 1.1947c1.0906 1e-5 2.0055-0.41257 2.7445-1.2377s1.1086-2.07 1.1086-3.7347-0.38748-2.9382-1.1624-3.8208-1.7221-1.3238-2.8414-1.3238-2.0127 0.40541-2.68 1.2162-1.001 2.1562-1.0009 4.0361zm47.163 2.5185h-17.565c0.15785 1.4064 0.53813 2.4539 1.1409 3.1428 0.84666 0.99019 1.9516 1.4853 3.315 1.4853 0.86101 0 1.679-0.21525 2.4539-0.64577 0.47355-0.27266 0.98299-0.7534 1.5283-1.4422l8.6318 0.79646c-1.3203 2.2961-2.9132 3.9428-4.7787 4.9402s-4.542 1.496-8.0291 1.496c-3.028 0-5.4102-0.42693-7.1466-1.2808s-3.175-2.21-4.3159-4.0684-1.7113-4.0432-1.7113-6.5546c0-3.5733 1.1444-6.4649 3.4334-8.6749s5.4496-3.3149 9.4821-3.315c3.2719 2e-5 5.855 0.49511 7.7493 1.4853s3.3365 2.4252 4.3267 4.3052 1.4852 4.3267 1.4853 7.3403v0.99019zm-8.9116-4.1975c-0.17223-1.6933-0.62786-2.906-1.3669-3.6378s-1.7113-1.0978-2.9167-1.0978c-1.392 2e-5 -2.5042 0.55251-3.3365 1.6575-0.53098 0.68884-0.86822 1.7149-1.0117 3.0782h8.6318zm13.066-9.4068h8.2013v3.7455c0.78926-1.6216 1.6036-2.7373 2.4432-3.3472s1.8763-0.91482 3.1105-0.91484c1.2915 2e-5 2.705 0.40183 4.2406 1.2054l-2.7122 6.2425c-1.0332-0.4305-1.8512-0.64576-2.4539-0.64577-1.1481 1e-5 -2.0378 0.47358-2.6692 1.4207-0.9041 1.3346-1.3561 3.8316-1.3561 7.491v7.6632h-8.804v-22.86zm-157.85 72.757h-11.107l-1.5283 5.2092h-9.9664l11.861-31.557h10.634l11.861 31.557h-10.203l-1.5498-5.2092zm-2.045-6.8237-3.4872-11.344-3.4656 11.344h6.9528zm14.767 5.7043 8.6964-0.81797c0.35876 1.0332 0.86102 1.7723 1.5068 2.2172s1.5068 0.6673 2.5831 0.66729c1.1767 1e-5 2.088-0.25113 2.7338-0.7534 0.50225-0.3731 0.75338-0.83949 0.7534-1.3992-2e-5 -0.63141-0.33008-1.1193-0.99018-1.4638-0.47358-0.24395-1.7292-0.54531-3.767-0.90408-3.0423-0.53096-5.1554-1.0225-6.3393-1.4745s-2.1813-1.2162-2.9921-2.2925-1.2162-2.3032-1.2162-3.6809c0-1.5068 0.43769-2.8055 1.3131-3.8962s2.0808-1.905 3.6163-2.4432 3.5948-0.80719 6.1779-0.80722c2.7266 3e-5 4.7392 0.20811 6.038 0.62425s2.3822 1.062 3.2504 1.9373 1.5893 2.0593 2.1633 3.5518l-8.3089 0.81798c-0.21527-0.73186-0.57403-1.27-1.0763-1.6144-0.68883-0.4592-1.5212-0.68881-2.497-0.68882-0.9902 1e-5 -1.7113 0.17581-2.1633 0.52738s-0.67807 0.77853-0.67806 1.2808c-1e-5 0.55968 0.287 0.98302 0.86103 1.27s1.8225 0.54534 3.7455 0.77493c2.9131 0.33008 5.08 0.78929 6.5008 1.3776s2.5077 1.4279 3.2612 2.5185 1.1301 2.2889 1.1301 3.5948c-3e-5 1.3202-0.39825 2.6046-1.1947 3.8531s-2.0521 2.2423-3.767 2.9813-4.0504 1.1086-7.0066 1.1086c-4.176 0-7.1501-0.59554-8.9224-1.7866s-2.9096-2.8844-3.4118-5.0801zm28.543-25.228h8.8471v10.935c0.87536-0.91841 1.8691-1.6072 2.9813-2.0665s2.3427-0.6888 3.6917-0.68883c2.784 3e-5 5.0872 1.001 6.9098 3.0028s2.7337 4.8756 2.7338 8.6211c-3e-5 2.497-0.41619 4.6962-1.2485 6.5976s-1.984 3.3221-3.4549 4.2621-3.1033 1.4099-4.8971 1.4099c-1.5355 0-2.9419-0.33007-4.219-0.99019-0.96149-0.51661-2.0091-1.4853-3.1428-2.906v3.3795h-8.2013v-31.557zm8.7825 20.062c-1e-5 1.966 0.36951 3.3903 1.1086 4.2729s1.6754 1.3238 2.8091 1.3238c1.0476 0 1.9265-0.4341 2.6369-1.3023s1.0655-2.3284 1.0655-4.3805c-2e-5 -1.8081-0.34802-3.1356-1.044-3.9823s-1.5391-1.27-2.5293-1.27c-1.1911 1e-5 -2.1634 0.44129-2.9167 1.3238s-1.1301 2.2208-1.1301 4.0146zm46 2.2387h-17.565c0.15785 1.4064 0.53814 2.4539 1.1409 3.1428 0.84666 0.99019 1.9516 1.4853 3.315 1.4853 0.86101 0 1.679-0.21526 2.4539-0.64578 0.47355-0.27265 0.98299-0.75339 1.5283-1.4422l8.6318 0.79645c-1.3203 2.2961-2.9132 3.9428-4.7787 4.9402s-4.542 1.496-8.0291 1.496c-3.028 0-5.4101-0.42693-7.1465-1.2808s-3.175-2.21-4.3159-4.0684-1.7113-4.0432-1.7113-6.5546c0-3.5733 1.1444-6.4649 3.4334-8.6749s5.4496-3.3149 9.4821-3.315c3.2719 3e-5 5.855 0.49512 7.7493 1.4853s3.3365 2.4252 4.3267 4.3051 1.4852 4.3267 1.4853 7.3403v0.99018zm-8.9116-4.1975c-0.17223-1.6934-0.62785-2.906-1.3669-3.6378s-1.7113-1.0978-2.9167-1.0978c-1.392 2e-5 -2.5042 0.55252-3.3365 1.6575-0.53098 0.68883-0.86822 1.7149-1.0117 3.0782h8.6318zm11.43 7.125 8.6964-0.81797c0.35876 1.0332 0.86102 1.7723 1.5068 2.2172s1.5068 0.6673 2.5831 0.66729c1.1767 1e-5 2.088-0.25113 2.7338-0.7534 0.50225-0.3731 0.75338-0.83949 0.7534-1.3992-2e-5 -0.63141-0.33008-1.1193-0.99018-1.4638-0.47358-0.24395-1.7292-0.54531-3.767-0.90408-3.0423-0.53096-5.1554-1.0225-6.3393-1.4745s-2.1813-1.2162-2.9921-2.2925-1.2162-2.3032-1.2162-3.6809c0-1.5068 0.43769-2.8055 1.3131-3.8962s2.0808-1.905 3.6163-2.4432 3.5948-0.80719 6.1779-0.80722c2.7266 3e-5 4.7392 0.20811 6.038 0.62425s2.3822 1.062 3.2504 1.9373 1.5893 2.0593 2.1633 3.5518l-8.3089 0.81798c-0.21527-0.73186-0.57404-1.27-1.0763-1.6144-0.68883-0.4592-1.5212-0.68881-2.497-0.68882-0.9902 1e-5 -1.7113 0.17581-2.1633 0.52738s-0.67807 0.77853-0.67806 1.2808c-1e-5 0.55968 0.287 0.98302 0.86103 1.27s1.8225 0.54534 3.7455 0.77493c2.9131 0.33008 5.08 0.78929 6.5008 1.3776s2.5077 1.4279 3.2612 2.5185 1.1301 2.2889 1.1301 3.5948c-3e-5 1.3202-0.39825 2.6046-1.1947 3.8531s-2.0521 2.2423-3.767 2.9813-4.0504 1.1086-7.0066 1.1086c-4.176 0-7.1501-0.59554-8.9224-1.7866s-2.9096-2.8844-3.4118-5.0801zm39.069-25.228v8.6964h4.8218v6.3931h-4.8218v8.1152c-1e-5 0.97584 0.09327 1.6216 0.27983 1.9373 0.287 0.48792 0.78927 0.73188 1.5068 0.73188 0.64575 0 1.5498-0.18656 2.7122-0.55967l0.64577 6.0487c-2.1669 0.47356-4.1904 0.71035-6.0703 0.71035-2.1813 0-3.7885-0.27984-4.8218-0.83951s-1.7974-1.4099-2.2925-2.5508-0.74264-2.9885-0.74264-5.5429v-8.0506h-3.2289v-6.3931h3.2289v-4.1975l8.7825-4.4989zm7.8999 20.191c0-3.4872 1.1767-6.3608 3.5302-8.621s5.5321-3.3903 9.5359-3.3903c4.5778 3e-5 8.0362 1.3274 10.375 3.9823 1.8799 2.1382 2.8198 4.7716 2.8199 7.9-3e-5 3.5159-1.166 6.3967-3.4979 8.6426s-5.5572 3.3688-9.6758 3.3688c-3.6737 0-6.6443-0.93279-8.9116-2.7984-2.784-2.3104-4.176-5.3384-4.176-9.0839zm8.7825-0.02152c-1e-5 2.0378 0.41257 3.5446 1.2377 4.5204s1.862 1.4638 3.1105 1.4638c1.2628 1e-5 2.2996-0.48074 3.1105-1.4422s1.2162-2.5042 1.2162-4.628c-2e-5 -1.9804-0.409-3.4549-1.227-4.4235s-1.8297-1.453-3.0351-1.453c-1.2772 2e-5 -2.332 0.49152-3.1643 1.4745s-1.2485 2.4791-1.2485 4.4881zm20.191 5.0585 8.6964-0.81797c0.35875 1.0332 0.86102 1.7723 1.5068 2.2172s1.5068 0.6673 2.5831 0.66729c1.1767 1e-5 2.088-0.25113 2.7338-0.7534 0.50225-0.3731 0.75338-0.83949 0.7534-1.3992-2e-5 -0.63141-0.33008-1.1193-0.99019-1.4638-0.47358-0.24395-1.7292-0.54531-3.767-0.90408-3.0423-0.53096-5.1554-1.0225-6.3393-1.4745s-2.1813-1.2162-2.9921-2.2925-1.2162-2.3032-1.2162-3.6809c0-1.5068 0.43769-2.8055 1.3131-3.8962s2.0808-1.905 3.6163-2.4432 3.5948-0.80719 6.1779-0.80722c2.7266 3e-5 4.7392 0.20811 6.038 0.62425s2.3822 1.062 3.2504 1.9373 1.5893 2.0593 2.1633 3.5518l-8.3089 0.81798c-0.21527-0.73186-0.57403-1.27-1.0763-1.6144-0.68884-0.4592-1.5212-0.68881-2.497-0.68882-0.99019 1e-5 -1.7113 0.17581-2.1633 0.52738s-0.67807 0.77853-0.67806 1.2808c-1e-5 0.55968 0.287 0.98302 0.86103 1.27s1.8225 0.54534 3.7455 0.77493c2.9131 0.33008 5.0801 0.78929 6.5008 1.3776s2.5077 1.4279 3.2612 2.5185 1.1301 2.2889 1.1301 3.5948c-2e-5 1.3202-0.39825 2.6046-1.1947 3.8531s-2.0522 2.2423-3.767 2.9813-4.0504 1.1086-7.0066 1.1086c-4.176 0-7.1501-0.59554-8.9224-1.7866s-2.9096-2.8844-3.4118-5.0801z" fill="#fff"/>
 </g>
</svg>
