<?xml version="1.0"?>
<svg xmlns="http://www.w3.org/2000/svg" viewBox="0 0 512 512" width="512" height="512"><g id="Solid"><path d="M240,75.695a31.885,31.885,0,0,0,32,0V112H240ZM186.314,335l29.461-27.911-16.554-16.554-9.146,10.671a8,8,0,0,1-11.732.451L133.616,256.93l40.938,58.482a8,8,0,0,1,.507,8.336Zm-84.383,72.394,39.53-29.83a8,8,0,0,1,12.642,4.71l5.9,27.533V363.37a8,8,0,0,1,2.5-5.808l12.2-11.554-10.943-10.943A8,8,0,0,1,160,336H104.985l32.955,8.239A8,8,0,0,1,142.247,357ZM272,48a16,16,0,1,0-16,16A16.019,16.019,0,0,0,272,48ZM240,160h32V128H240Zm138.384,96.93-44.727,44.727a8,8,0,0,1-11.732-.451l-9.146-10.671-16.554,16.554,33.569,31.8L340.686,328l-2.343-2.343a8,8,0,0,1-.9-10.245ZM80,480h79.03a32.755,32.755,0,0,0,23.313-9.657A33.125,33.125,0,0,0,192,447.03V351.652l-16,15.159V448a8,8,0,0,1-8,8h-8a8,8,0,0,1-7.823-6.324l-4.31-20.124L117,454.247l-10-12.494,37.118-29.694-3.035-14.166L76.819,446.386a7.991,7.991,0,0,1-8.386.774c-6.016-3-6.539-15.329-2.682-20.155l36.624-45.78-12.214-4.072-28.5,28.5L50.343,394.343l22.009-22.009L54.06,367.761l3.88-15.522,55.087,15.67,8.938-11.172-51.9-12.976A8,8,0,0,1,64,336v-8a8,8,0,0,1,8-8h52.686l-16-16H72V288H99.056L88.845,267.578l14.31-7.156,15.42,30.839L147.314,320h9.373l.91-.911-52.151-74.5a8,8,0,0,1,.9-10.245l8-8a8,8,0,0,1,11.314,0l31.029,31.03-4.228-29.6-30.115-30.114,11.314-11.314,24.151,24.151,11.037-22.072,14.31,7.156-14.882,29.765,7.269,50.886,8.006,8,8.452-9.86V201.44a41.446,41.446,0,0,0-78.516-18.529L39.606,330.688A72.3,72.3,0,0,0,32,362.89V432A48.054,48.054,0,0,0,80,480ZM398.514,182.907A41.446,41.446,0,0,0,320,201.44v72.934l8.452,9.86,8.006-8,7.269-50.886-14.882-29.765,14.31-7.156,11.037,22.072,24.151-24.151,11.314,11.314-30.115,30.114-4.228,29.6,31.029-31.03a8,8,0,0,1,11.314,0l8,8a8,8,0,0,1,.9,10.245l-52.151,74.5.91.911h9.373l28.739-28.739,15.42-30.839,14.31,7.156L412.944,288H440v16H403.313l-16,16H440a8,8,0,0,1,8,8v8a8,8,0,0,1-6.06,7.761l-51.9,12.976,8.938,11.172,55.087-15.67,3.88,15.522-18.292,4.573,22.009,22.009-11.314,11.314-28.5-28.5-12.214,4.072L446.247,427c5.556,6.948-.085,27.671-11.065,19.384l-64.267-48.493-3.035,14.166L405,441.753l-10,12.494-30.869-24.695-4.31,20.124A8,8,0,0,1,352,456h-8a8,8,0,0,1-8-8V366.81l-16-15.158V447.03a34.1,34.1,0,0,0,9.658,23.314A32.754,32.754,0,0,0,352.97,480H432a48.054,48.054,0,0,0,48-48V362.89a72.31,72.31,0,0,0-7.6-32.2ZM374.06,344.239,407.015,336h-51.7l-13.9,13.9,8.09,7.664a8,8,0,0,1,2.5,5.806v46.437l5.9-27.533a8,8,0,0,1,12.642-4.71l39.53,29.83L369.753,357a8,8,0,0,1,4.307-12.759ZM240,240a8,8,0,0,1-1.926,5.207l-28.409,33.144,17.729,17.729,23.1-21.888a8,8,0,0,1,11,0l23.1,21.889,17.73-17.73-28.409-33.144A8,8,0,0,1,272,240V224H240Zm0-32h32V176H240Z"/></g></svg>
