<?xml version="1.0" encoding="UTF-8"?>
<!DOCTYPE svg  PUBLIC '-//W3C//DTD SVG 1.1//EN'  'http://www.w3.org/Graphics/SVG/1.1/DTD/svg11.dtd'>
<svg width="572.84" height="561.12" version="1.1" viewBox="0, 0, 572.839, 561.118" xmlns="http://www.w3.org/2000/svg">
 <defs>
  <linearGradient id="j" x1="349.6" x2="307.89" y1="326.19" y2="456.34" gradientTransform="matrix(2.428 -2.312 2.306 2.445 -1465 137.13)" gradientUnits="userSpaceOnUse">
   <stop stop-color="#D5D4D0" offset="0"/>
   <stop stop-color="#F1F1F1" offset=".245"/>
   <stop stop-color="#fff" offset=".491"/>
   <stop stop-color="#F0F0F0" offset=".745"/>
   <stop stop-color="#D4D4D4" offset="1"/>
  </linearGradient>
  <linearGradient id="k" x1="349.6" x2="307.89" y1="326.19" y2="456.34" gradientTransform="matrix(2.826 -1.805 1.795 2.841 -1397.8 -182)" gradientUnits="userSpaceOnUse">
   <stop stop-color="#D5D4D0" offset="0"/>
   <stop stop-color="#F1F1F1" offset=".245"/>
   <stop stop-color="#fff" offset=".491"/>
   <stop stop-color="#F0F0F0" offset=".745"/>
   <stop stop-color="#D4D4D4" offset="1"/>
  </linearGradient>
  <linearGradient id="l" x1="349.6" x2="307.89" y1="326.19" y2="456.34" gradientTransform="matrix(3.986 -.466 .466 3.986 -1240.3 -1122.7)" gradientUnits="userSpaceOnUse">
   <stop stop-color="#D5D4D0" offset="0"/>
   <stop stop-color="#F1F1F1" offset=".245"/>
   <stop stop-color="#fff" offset=".491"/>
   <stop stop-color="#F0F0F0" offset=".745"/>
   <stop stop-color="#D4D4D4" offset="1"/>
  </linearGradient>
  <linearGradient id="m" x1="-264.2" x2="-264.2" y1="156.04" y2="188.46" gradientTransform="matrix(.296 -.853 1.046 .363 113.65 15.058)" gradientUnits="userSpaceOnUse">
   <stop stop-color="#A58755" offset="0"/>
   <stop stop-color="#C4A000" offset=".162"/>
   <stop stop-color="#8B7200" offset=".397"/>
   <stop stop-color="#C4A000" offset=".676"/>
   <stop stop-color="#7E664E" offset="1"/>
  </linearGradient>
  <linearGradient id="n" x1="-267.64" x2="-267.64" y1="194.95" y2="214.07" gradientTransform="matrix(.311 -.896 .996 .346 113.65 15.058)" gradientUnits="userSpaceOnUse">
   <stop stop-color="#A58755" offset="0"/>
   <stop stop-color="#C4A000" offset=".162"/>
   <stop stop-color="#8B7200" offset=".397"/>
   <stop stop-color="#EDD400" offset=".676"/>
   <stop stop-color="#7E664E" offset="1"/>
  </linearGradient>
  <linearGradient id="o" x1="-266.63" x2="-266.63" y1="183.27" y2="205.84" gradientTransform="matrix(.309 -.891 1.002 .348 113.65 15.058)" gradientUnits="userSpaceOnUse">
   <stop stop-color="#A58755" offset="0"/>
   <stop stop-color="#C4A000" offset=".162"/>
   <stop stop-color="#8B7200" offset=".397"/>
   <stop stop-color="#C4A000" offset=".676"/>
   <stop stop-color="#7E664E" offset="1"/>
  </linearGradient>
  <linearGradient id="p" x1="-47.491" x2="-47.491" y1="-513.61" y2="-439.89" gradientTransform="matrix(-2.845 -3.941 .418 -.281 228.87 -105.44)" gradientUnits="userSpaceOnUse">
   <stop stop-color="#D3D7CF" offset="0"/>
   <stop stop-color="#EEEEEC" offset=".136"/>
   <stop stop-color="#BABDB6" offset=".287"/>
   <stop stop-color="#EEEEEC" offset=".437"/>
   <stop stop-color="#D3D7CF" stop-opacity="0" offset="1"/>
  </linearGradient>
  <linearGradient id="q" x1="-24.592" x2="-24.592" y1="-966.15" y2="-927.26" gradientTransform="matrix(-5.407 -7.49 .22 -.148 228.87 -105.44)" gradientUnits="userSpaceOnUse">
   <stop stop-color="#fff" offset="0"/>
   <stop stop-color="#fff" stop-opacity="0" offset="1"/>
  </linearGradient>
  <linearGradient id="r" x1="-24.575" x2="-24.575" y1="-910.79" y2="-943.97" gradientTransform="matrix(-5.407 -7.49 .22 -.148 228.87 -105.44)" gradientUnits="userSpaceOnUse">
   <stop stop-color="#fff" offset="0"/>
   <stop stop-color="#fff" stop-opacity="0" offset="1"/>
  </linearGradient>
 </defs>
 <path d="m53.983 259.74l187.7-177.36c0.86-0.821 2.22-0.775 3.04 0.104l237.48 213.98c0.82 0.88 0.8 2.24-0.06 3.07l-205.07 196.74c-0.85 0.83-2.21 0.78-3.04-0.1l-220.1-233.36c-0.826-0.88-0.804-2.25 0.053-3.07z" fill-opacity="0" stroke="#000" stroke-miterlimit="0" stroke-width="9.629"/>
 <path d="m42.039 259.73l196.72-185.25c0.89-0.856 2.31-0.819 3.16 0.085l245.56 219.94c0.85 0.91 0.82 2.33-0.08 3.19l-214.95 205.47c-0.9 0.86-2.31 0.82-3.16-0.08l-227.33-240.17c-0.853-0.9-0.819-2.32 0.079-3.18z" fill="#fff"/>
 <path d="m42.039 259.73l196.72-185.25c0.89-0.856 2.31-0.819 3.16 0.085l245.56 219.94c0.85 0.91 0.82 2.33-0.08 3.19l-214.95 205.47c-0.9 0.86-2.31 0.82-3.16-0.08l-227.33-240.17c-0.853-0.9-0.819-2.32 0.079-3.18z" fill-opacity="0" stroke="#CACACA" stroke-miterlimit="0" stroke-width="2.681"/>
 <path d="m57.642 258.6l180.38-169.82c0.82-0.788 2.13-0.74 2.93 0.108l229.72 206.51c0.8 0.85 0.79 2.16-0.04 2.95l-197.06 188.39c-0.82 0.79-2.13 0.74-2.93-0.1l-213.04-225.09c-0.798-0.85-0.781-2.17 0.042-2.95z" fill="url(#j)"/>
 <path d="m69.697 229.06l218.17-138.15c1-0.643 2.32-0.339 2.97 0.682l192.12 255.47c0.65 1.02 0.37 2.36-0.63 3l-238.94 153.86c-1 0.65-2.32 0.34-2.97-0.68l-171.36-271.17c-0.646-1.02-0.361-2.36 0.637-3.01z" fill-opacity="0" stroke="#000" stroke-miterlimit="0" stroke-width="9.629"/>
 <path d="m57.976 226.77l228.53-144.17c1.05-0.674 2.43-0.368 3.09 0.684l198.92 262.88c0.67 1.05 0.36 2.43-0.68 3.1l-250.3 160.54c-1.05 0.67-2.43 0.37-3.09-0.68l-177.16-279.24c-0.665-1.05-0.36-2.44 0.686-3.11z" fill="#fff"/>
 <path d="m57.976 226.77l228.53-144.17c1.05-0.674 2.43-0.368 3.09 0.684l198.92 262.88c0.67 1.05 0.36 2.43-0.68 3.1l-250.3 160.54c-1.05 0.67-2.43 0.37-3.09-0.68l-177.16-279.24c-0.665-1.05-0.36-2.44 0.686-3.11z" fill-opacity="0" stroke="#CACACA" stroke-miterlimit="0" stroke-width="2.681"/>
 <path d="m73.507 228.64l209.54-132.15c0.96-0.617 2.23-0.319 2.86 0.666l185.95 246.66c0.62 0.98 0.35 2.27-0.61 2.89l-229.47 147.19c-0.96 0.62-2.24 0.32-2.86-0.67l-166.02-261.7c-0.621-0.98-0.352-2.27 0.607-2.89z" fill="url(#k)"/>
 <path d="m131.1 83.107l307.14-34.705c1.41-0.17 2.68 0.846 2.84 2.279l75.09 374.41c0.17 1.43-0.83 2.72-2.24 2.89l-337.69 40.76c-1.41 0.16-2.68-0.85-2.85-2.28l-44.53-380.46c-0.17-1.432 0.83-2.722 2.24-2.893z" fill-opacity="0" stroke="#000" stroke-miterlimit="0" stroke-width="11.531"/>
 <path d="m119.64 74.538l321.43-35.771c1.48-0.175 2.81 0.872 2.99 2.349l78.58 385.89c0.18 1.48-0.87 2.81-2.34 2.98l-353.42 42.01c-1.48 0.17-2.81-0.87-2.98-2.35l-46.61-392.13c-0.18-1.477 0.87-2.807 2.35-2.982z" fill="#fff"/>
 <path d="m119.64 74.538l321.43-35.771c1.48-0.175 2.81 0.872 2.99 2.349l78.58 385.89c0.18 1.48-0.87 2.81-2.34 2.98l-353.42 42.01c-1.48 0.17-2.81-0.87-2.98-2.35l-46.61-392.13c-0.18-1.477 0.87-2.807 2.35-2.982z" fill-opacity="0" stroke="#494946" stroke-miterlimit="0" stroke-width="3.211"/>
 <path d="m135.43 84.641l294.71-32.759c1.36-0.161 2.58 0.823 2.74 2.207l72.98 361.73c0.16 1.38-0.79 2.62-2.15 2.79l-324.02 38.52c-1.35 0.16-2.57-0.82-2.74-2.21l-43.66-367.49c-0.17-1.385 0.79-2.628 2.14-2.789z" fill="url(#l)"/>
 <text transform="matrix(.993 -.115 .115 .993 316.02 128.5)" fill="#000000">
  <tspan x="-171.073" y="-46" font-family="Arial-BoldMT" font-size="18">Risk Assessment</tspan>
  <tspan x="-171.073" y="-13" font-family="Arial-BoldMT" font-size="12">Hazard	Mechanism  		Risk   Action</tspan>
  <tspan x="-171.073" y="2" font-family="ArialMT" font-size="13"/>
 </text>
 <path d="m138.94 123l35.84 319.86" fill-opacity="0" stroke="#000"/>
 <path d="m194.94 117l36.74 318.51" fill-opacity="0" stroke="#000"/>
 <path d="m305.94 105l44.4 316.39" fill-opacity="0" stroke="#000"/>
 <path d="m441.31 105l-300.79 35.58" fill-opacity="0" stroke="#000"/>
 <path d="m449.88 147.71l-304.08 36.05" fill-opacity="0" stroke="#000" stroke-width=".5"/>
 <path d="m458.44 190.41l-307.55 36.29" fill-opacity="0" stroke="#000" stroke-width=".5"/>
 <path d="m467.01 233.12l-311.04 37.09" fill-opacity="0" stroke="#000" stroke-width=".5"/>
 <path d="m475.57 275.82l-315.64 37.33" fill-opacity="0" stroke="#000" stroke-width=".5"/>
 <path d="m484.14 318.53l-318.56 37.57" fill-opacity="0" stroke="#000" stroke-width=".5"/>
 <path d="m492.7 361.24l-322.6 37.8" fill-opacity="0" stroke="#000" stroke-width=".5"/>
 <path d="m501.27 403.94l-326.49 38.92" fill-opacity="0" stroke="#000"/>
 <path d="m339.94 99l53.34 317.87" fill-opacity="0" stroke="#000"/>
 <path d="m439 93l62.27 310.94" fill-opacity="0" stroke="#000"/>
 <path d="m257.42 398.05c0 0.55-0.49 0.99-1.09 0.99-0.61 0-1.09-0.44-1.09-0.99 0-0.54 0.48-0.98 1.09-0.98 0.6 0 1.09 0.44 1.09 0.98z" fill="#f00"/>
 <path d="m87.298 129.68l-7.334-10.16 6.859-4.6 7.334 10.16z" fill="#1D3AA1"/>
 <path d="m211.24 300.69l-90.31-125.09 3.88-2.61 90.31 125.1z" fill="#1D3AA1" opacity=".698"/>
 <path d="m215.64 311.4l8.43-5.64 0.07-0.05-9.83-8.71-3.72 2.5 5.05 11.9zm8.43-5.64l-8.33 5.59 6.5 9.01 8.33-5.6-6.5-9z" fill="url(#m)"/>
 <path d="m232.61 329.77l2.92 3.43c2.6 2.1 3.87 0.44 3.18-2.14l-2.35-3.85-3.76 2.56z" fill="url(#n)"/>
 <path d="m221.85 320.55l10.55 9.33 4-2.68-5.46-12.81-9.09 6.16z" fill="url(#o)"/>
 <g opacity=".527">
  <path d="m211.24 310.46l11.37 9.76 9.15-6.09-5.55-13.72-135.29-188.43-14.515 9.44 134.84 189.04z" fill="url(#p)"/>
  <path d="m211.24 310.46l11.37 9.76 9.15-6.09-5.55-13.72-135.29-188.43-14.515 9.44 134.84 189.04z" fill-opacity="0" stroke="#BABDB6" stroke-width="2"/>
 </g>
 <g opacity=".527">
  <path d="m109.17 169.92l102.1 140.82 11.38 9.76 0.25-0.17-143.3-199.68-3.546 1.78z" fill="url(#q)"/>
  <path d="m109.17 169.92l102.1 140.82 11.38 9.76 0.25-0.17-143.3-199.68-3.546 1.78z" fill-opacity="0" stroke="#D3D7CF" stroke-opacity=".762" stroke-width="2"/>
 </g>
 <g opacity=".527">
  <path d="m89.714 112.16l137.54 188.57 5.54 13.67-0.26 0.17-110.02-153.29-34.906-46.9z" fill="url(#r)"/>
  <path d="m89.714 112.16l137.54 188.57 5.54 13.67-0.26 0.17-110.02-153.29-34.906-46.9z" fill-opacity="0" stroke="#D3D7CF" stroke-width="2"/>
 </g>
 <path d="m74.931 122.37l16.636-11.17c-1.392-1.11-6.519-0.87-10.867 2.05-4.347 2.92-6.362 7.48-5.768 9.12z" fill="#1D3AA1"/>
</svg>
