<svg height="512pt" viewBox="-66 0 512 512" width="512pt" xmlns="http://www.w3.org/2000/svg"><path d="m189.816406 129.0625-189.816406 189.8125 38.738281 38.738281 151.078125-151.074219 151.074219 151.074219 38.742187-38.738281zm0 56.261719-151.078125 151.078125-17.527343-17.527344 168.605468-168.601562 168.601563 168.601562-17.527344 17.527344zm0 0"/><path d="m320.925781 238.277344v-75.398438h-65.878906v24.519532h15v-9.519532h35.878906v60.398438zm0 0"/><path d="m311.9375 497h-71.621094v-117.5h-101v117.5h-71.625v-146.445312h-15v161.445312h101.625v-117.5h71v117.5h101.621094v-161.445312h-15zm0 0"/><path d="m146.308594 267.492188v87.015624h87.015625v-87.015624zm72.015625 36.007812h-21.007813v-21.007812h21.007813zm-36.007813-21.007812v21.007812h-21.007812v-21.007812zm-21.007812 36.007812h21.007812v21.007812h-21.007812zm36.007812 21.007812v-21.007812h21.007813v21.007812zm0 0"/><path d="m140.976562 165.226562 4.347657-14.355468c-49.34375-14.949219-88.480469-51.34375-101.558594-64.621094 10.972656-11.148438 40.292969-38.5625 78.710937-55.953125-12.878906 15.074219-20.664062 34.621094-20.664062 55.953125 0 17.292969 5.101562 33.976562 14.753906 48.246094l12.425782-8.402344c-7.96875-11.78125-12.179688-25.558594-12.179688-39.84375 0-7.359375 1.125-14.464844 3.207031-21.148438 6.53125 14.128907 21.785157 22.71875 37.820313 20.105469-.585938 17.128907 13.183594 31.289063 30.226562 31.289063 16.675782 0 30.242188-13.566406 30.242188-30.242188 0-17.039062-14.15625-30.8125-31.289063-30.226562 2.613281-16.027344-5.96875-31.285156-20.101562-37.824219 45.8125-14.265625 92.398437 20.1875 92.398437 68.050781 0 13.320313-3.699218 26.308594-10.691406 37.558594l12.738281 7.917969c8.472657-13.628907 12.953125-29.355469 12.953125-45.476563 0-21.3125-7.769531-40.839844-20.621094-55.90625 38.363282 17.394532 67.6875 44.773438 78.664063 55.90625-12.855469 13.058594-50.867187 48.425782-98.992187 63.820313l4.570312 14.285156c42.75-13.675781 84.738281-43.988281 114.742188-78.105469l-4.355469-4.953125c-.730469-.832031-18.222657-20.585937-46.605469-40.558593-37.882812-26.652344-77.183594-40.742188-113.65625-40.742188-36.46875 0-75.769531 14.089844-113.652344 40.742188-28.382812 19.96875-45.875 39.726562-46.605468 40.554687l-4.355469 4.953125c30.410156 34.578125 73.457031 65.625 117.527343 78.976562zm62.332032-78.976562c0 8.40625-6.839844 15.242188-15.246094 15.242188s-15.242188-6.835938-15.242188-15.242188 6.835938-15.242188 15.242188-15.242188 15.246094 6.835938 15.246094 15.242188zm-51.179688-15.582031c-11.226562 0-20.355468-9.132813-20.355468-20.355469s9.128906-20.351562 20.355468-20.351562c11.222656 0 20.351563 9.128906 20.351563 20.351562s-9.128907 20.355469-20.351563 20.355469zm0 0"/><path d="m218.273438 139.519531-7.417969-13.035156c11.078125-6.304687 19.148437-16.976563 22.148437-29.28125l14.574219 3.554687c-3.972656 16.296876-14.65625 30.425782-29.304687 38.761719zm30.957031-50.027343-14.980469-.789063c.042969-.808594.0625-1.632813.0625-2.453125 0-3.5-.390625-6.984375-1.167969-10.367188l14.617188-3.359374c1.03125 4.480468 1.550781 9.097656 1.550781 13.726562 0 1.082031-.027344 2.175781-.082031 3.242188zm-18.785157-21.75c-1.726562-3.9375-4-7.625-6.757812-10.953126l11.550781-9.570312c3.644531 4.402344 6.65625 9.277344 8.945313 14.496094zm0 0"/><path d="m301.9375 479.5h-15v-93.589844h15zm0-103.589844h-15v-15h15zm0-25h-15v-15h15zm0 0"/></svg>