<svg id="Capa_1" enable-background="new 0 0 512 512" height="512" viewBox="0 0 512 512" width="512" xmlns="http://www.w3.org/2000/svg"><g><path d="m120 45v16.509c-16.203 3.302-30.512 11.854-41.095 23.784l-14.347-8.283c-7.175-4.143-16.348-1.685-20.49 5.49-4.143 7.174-1.685 16.348 5.49 20.49l14.317 8.266c-2.5 7.468-3.875 15.446-3.875 23.744s1.375 16.276 3.875 23.744l-14.317 8.266c-7.175 4.142-9.633 13.316-5.49 20.49 4.155 7.197 13.336 9.62 20.49 5.49l14.347-8.283c10.583 11.93 24.892 20.481 41.095 23.784v16.509c0 8.284 6.716 15 15 15s15-6.716 15-15v-16.509c16.203-3.302 30.512-11.854 41.095-23.784l14.347 8.283c7.149 4.128 16.333 1.709 20.49-5.49 4.143-7.174 1.685-16.348-5.49-20.49l-14.317-8.266c2.5-7.468 3.875-15.446 3.875-23.744s-1.375-16.276-3.875-23.744l14.317-8.266c7.175-4.142 9.633-13.316 5.49-20.49-4.143-7.175-13.316-9.632-20.49-5.49l-14.347 8.283c-10.583-11.93-24.892-20.481-41.095-23.784v-16.509c0-8.284-6.716-15-15-15s-15 6.716-15 15zm60 90c0 24.813-20.187 45-45 45s-45-20.187-45-45 20.187-45 45-45 45 20.187 45 45z"/><path d="m15 482h347v15c0 5.682 3.21 10.875 8.292 13.417 5.07 2.535 11.152 2 15.708-1.417l120-90c3.777-2.833 6-7.279 6-12v-392c0-8.222-6.695-15-15-15h-482c-8.284 0-15 6.716-15 15v452c0 8.284 6.716 15 15 15zm467-82.5-90 67.5v-62.61c17.829-1.83 35.383-6.811 51.708-14.973 7.41-3.705 10.413-12.715 6.708-20.125s-12.713-10.414-20.124-6.708c-12.121 6.06-25.088 9.927-38.292 11.626v-29.82c17.829-1.83 35.383-6.811 51.708-14.973 7.41-3.705 10.413-12.715 6.708-20.125-3.705-7.409-12.713-10.412-20.124-6.708-12.121 6.06-25.088 9.927-38.292 11.626v-29.82c17.829-1.83 35.383-6.811 51.708-14.973 7.41-3.705 10.413-12.715 6.708-20.125s-12.713-10.413-20.124-6.708c-12.121 6.06-25.088 9.927-38.292 11.626v-141.71l90-67.5zm-452-369.5h422l-84 63c-3.777 2.833-6 7.279-6 12v149.339c-13.549-1.629-26.865-5.542-39.292-11.755-42.084-21.042-92.332-21.042-134.416 0-7.41 3.705-10.413 12.715-6.708 20.125s12.713 10.413 20.124 6.708c33.684-16.842 73.9-16.842 107.584 0 16.63 8.315 34.536 13.33 52.708 15.073v29.849c-13.549-1.629-26.865-5.542-39.292-11.755-42.084-21.042-92.332-21.042-134.416 0-7.41 3.705-10.413 12.715-6.708 20.125s12.713 10.413 20.124 6.708c33.684-16.842 73.9-16.842 107.584 0 16.63 8.315 34.536 13.33 52.708 15.073v29.849c-13.549-1.629-26.865-5.542-39.292-11.755-42.084-21.042-92.332-21.042-134.416 0-7.41 3.705-10.413 12.715-6.708 20.125s12.713 10.414 20.124 6.708c33.684-16.842 73.9-16.842 107.584 0 16.63 8.315 34.536 13.33 52.708 15.073v47.51h-332z"/></g></svg>