<svg id="Capa_1" enable-background="new 0 0 512 512" height="512" viewBox="0 0 512 512" width="512" xmlns="http://www.w3.org/2000/svg"><g><path d="m134.316 255.417c5.544 4.382 12.198 6.581 19.869 6.581 3.557 0 7.333-.473 11.317-1.42 22.268-5.291 36.259-21.265 48.603-35.359 12.392-14.15 24.098-27.514 41.898-27.514s29.505 13.365 41.897 27.514c12.343 14.094 26.335 30.069 48.603 35.36 12.578 2.988 23.07 1.252 31.187-5.16 14.015-11.075 22.052-36.289 22.052-69.177 0-29.635-4.668-41.861-19.21-50.316-19.364-11.257-56.606-16.06-124.528-16.06-23.051 0-42.197.56-58.531 1.711-4.14.292-7.259 3.885-6.968 8.024.292 4.14 3.888 7.255 8.024 6.968 15.979-1.126 34.779-1.674 57.474-1.674 63.347 0 100.516 4.456 116.974 14.023 7.088 4.121 11.735 8.946 11.735 37.323 0 27.43-6.261 49.419-16.341 57.384-2.8 2.211-7.755 4.857-18.394 2.33-17.599-4.181-28.854-17.033-40.771-30.639-13.399-15.3-28.587-32.641-53.203-32.641s-39.804 17.341-53.205 32.641c-11.916 13.606-23.172 26.458-40.77 30.639-10.644 2.53-15.595-.119-18.392-2.33-10.08-7.966-16.343-29.954-16.343-57.384 0-28.378 4.646-33.202 11.734-37.322 6.609-3.842 16.805-6.913 30.306-9.126 4.095-.672 6.871-4.536 6.2-8.632-.672-4.095-4.538-6.868-8.632-6.2-15.528 2.546-27.117 6.133-35.428 10.964-14.542 8.454-19.209 20.68-19.209 50.316 0 32.888 8.038 58.101 22.052 69.176z"/><path d="m493.515 318.046-28.579-14.239c-8.258-4.331-19.279-.64-23.263 7.791l-2.12 4.254-27.439-13.671c2.992-11.282 5.479-23.135 7.45-35.553 12.706-19.925 19.51-47.533 19.51-80.386 0-17.445-.011-47.027-20.463-69.635-8.564-34.694-24.525-62.06-47.498-81.326-3.181-2.667-7.92-2.251-10.587.929-2.666 3.18-2.25 7.92.93 10.587 16.033 13.446 28.275 31.516 36.577 53.856-26.27-14.267-67.837-20.119-142.029-20.119-74.206 0-115.776 5.854-142.045 20.127 9.782-26.308 25.062-46.672 45.608-60.691 24.253-16.549 56.699-24.94 96.436-24.94 32.019 0 59.391 5.448 81.357 16.193 3.731 1.823 8.229.28 10.053-3.449 1.824-3.728.28-8.229-3.448-10.052-24.04-11.76-53.634-17.722-87.962-17.722-88.853 0-143.553 39.241-162.627 116.628-20.433 22.606-20.444 52.174-20.444 69.613 0 32.854 6.805 60.461 19.511 80.387 1.971 12.418 4.457 24.271 7.45 35.552l-27.44 13.672-2.12-4.254c-3.986-8.434-15.001-12.121-23.264-7.792l-28.579 14.239c-8.431 3.987-12.121 15.004-7.79 23.264l49.729 99.808c3.992 8.431 14.987 12.123 23.264 7.791l28.579-14.239c8.562-4.266 12.057-14.702 7.791-23.264l-2.12-4.255 27.057-13.481c4.817 5.749 9.924 11.143 15.325 16.168-.135 2.074-.211 4.165-.211 6.272 0 52.874 43.016 95.889 95.889 95.889 52.874 0 95.89-43.016 95.89-95.889 0-2.108-.076-4.198-.211-6.272 5.401-5.025 10.508-10.419 15.325-16.168l27.057 13.481-2.12 4.255c-4.265 8.562-.771 18.997 7.791 23.263l28.579 14.239c8.277 4.333 19.271.64 23.263-7.791l49.729-99.808c4.265-8.56.77-18.996-7.791-23.262zm-374.255-203.131c23.644-13.745 63.261-19.352 136.743-19.352 73.481 0 113.097 5.607 136.742 19.352 28.882 16.79 31.298 44.442 31.298 71.326 0 40.961-11.112 72.3-31.287 88.244-9.792 7.737-26.74 15.708-51.871 9.738-29.82-7.085-47.997-27.839-61.273-42.998-12.422-14.182-17.856-19.218-23.61-19.218-5.755 0-11.19 5.036-23.617 19.225-13.271 15.153-31.448 35.906-61.266 42.99-5.869 1.394-11.61 2.101-17.063 2.101-13.158 0-24.869-3.983-34.809-11.839-20.176-15.944-31.287-47.283-31.287-88.244.001-26.882 2.418-54.534 31.3-71.325zm-13.691 306.302-28.579 14.24c-1.429.525-2.285.237-3.109-1.041l-49.728-99.809c-.526-1.426-.237-2.286 1.041-3.109l28.578-14.239c1.237-.518 2.357-.246 3.11 1.042l49.729 99.807c.569 1.144.102 2.539-1.042 3.109zm5.671-27.518-32.084-64.395 25.009-12.461c7.867 24.622 18.38 46.225 31.478 64.696zm144.763 103.272c-44.587 0-80.86-36.273-80.86-80.86 0-44.586 36.273-80.86 80.86-80.86 44.586 0 80.86 36.273 80.86 80.86 0 44.586-36.274 80.86-80.86 80.86zm92.716-105.346c-10.85-41.05-48.303-71.403-92.716-71.403s-81.865 30.353-92.716 71.402c-24.317-25.679-41.567-60.513-51.488-103.925 8.873 6.536 22.964 13.655 42.259 13.655 6.622 0 13.531-.844 20.537-2.508 34.488-8.193 54.492-31.033 69.101-47.714 2.576-2.941 8.68-9.911 12.308-13.055 3.627 3.144 9.73 10.112 12.309 13.056 14.606 16.678 34.611 39.519 69.101 47.713 7.427 1.764 14.294 2.524 20.616 2.523 18.777 0 32.738-6.699 42.177-13.665-9.922 43.41-27.172 78.243-51.488 103.921zm139.134-57.018-49.729 99.808c-.823 1.278-1.681 1.566-3.109 1.041l-28.579-14.239c-1.144-.57-1.612-1.965-1.041-3.109l16.957-34.033c1.851-3.715.34-8.227-3.375-10.077-3.714-1.852-8.227-.341-10.077 3.375l-8.134 16.327-24.403-12.159c13.099-18.471 23.611-40.074 31.478-64.696l25.009 12.46-10.459 20.991c-1.851 3.715-.339 8.227 3.375 10.077 3.712 1.849 8.227.34 10.077-3.375l19.281-38.698c.823-1.278 1.682-1.566 3.109-1.041l28.579 14.239c1.144.57 1.612 1.965 1.041 3.109z"/><path d="m256.003 352.71c-34.959 0-63.4 28.441-63.4 63.4s28.441 63.401 63.4 63.401 63.4-28.441 63.4-63.401c0-34.958-28.441-63.4-63.4-63.4zm0 15.03c12.676 0 24.222 4.907 32.855 12.913h-65.711c8.634-8.006 20.18-12.913 32.856-12.913zm0 96.742c-12.675 0-24.221-4.907-32.855-12.913h65.711c-8.635 8.006-20.181 12.913-32.856 12.913zm43.831-27.943h-87.662c-1.888-4.035-3.241-8.369-3.953-12.914h95.568c-.712 4.545-2.065 8.879-3.953 12.914zm-91.616-27.943c.712-4.545 2.065-8.878 3.953-12.913h87.662c1.888 4.035 3.241 8.368 3.953 12.913z"/></g></svg>