<?xml version="1.0"?>
<svg xmlns="http://www.w3.org/2000/svg" viewBox="0 0 512 512" width="512" height="512"><g id="outline"><path d="M368,408H312a8.009,8.009,0,0,1-8-8V372.1c.81-.327,1.618-.656,2.422-1l8.729-3.741A8,8,0,0,0,320,360v-.456a95.671,95.671,0,0,0,31.722-64.3A40.063,40.063,0,0,0,384,256V200a128,128,0,0,0-256,0v56a40.063,40.063,0,0,0,32.278,39.245A95.639,95.639,0,0,0,192,359.544V360a8,8,0,0,0,4.849,7.353l8.729,3.741c.842.361,1.689.707,2.537,1.049C208.045,372.567,208,400,208,400a8.009,8.009,0,0,1-8,8H144a80.091,80.091,0,0,0-80,80,8,8,0,0,0,8,8H440a8,8,0,0,0,8-8A80.091,80.091,0,0,0,368,408Zm-64-53.275-3.881,1.663a112.5,112.5,0,0,1-88.238,0l-3.85-1.65c-.011-.071-.018-.143-.031-.213V302.034l17.231-4.923a111.885,111.885,0,0,1,61.538,0L304,302.034ZM176,224V199.352a50.691,50.691,0,0,0,35.208-23.815l6.565-10.943A143.5,143.5,0,0,0,312.568,200H336v88H313.122l-21.957-6.273a127.885,127.885,0,0,0-70.33,0L198.878,288H176ZM320,336.009V304h14.391A79.611,79.611,0,0,1,320,336.009Zm32-57.38V233.371a24,24,0,0,1,0,45.258ZM256,88A112.127,112.127,0,0,1,368,200v24.022a39.835,39.835,0,0,0-16-7.217V192a8,8,0,0,0-8-8H312.568a127.726,127.726,0,0,1-90.911-37.657,8,8,0,0,0-12.517,1.541l-11.653,19.421A34.558,34.558,0,0,1,168,184a8,8,0,0,0-8,8v24.805a39.841,39.841,0,0,0-16,7.217V200A112.127,112.127,0,0,1,256,88ZM144,256a24.042,24.042,0,0,1,16-22.629v45.258A24.042,24.042,0,0,1,144,256Zm33.608,48H192v32.011A79.576,79.576,0,0,1,177.608,304ZM256,381.394a128.79,128.79,0,0,0,32-4.033V400a24.041,24.041,0,0,0,15.358,22.392A32.054,32.054,0,0,1,272,448H240a32.054,32.054,0,0,1-31.358-25.608A24.041,24.041,0,0,0,224,400V377.361A128.79,128.79,0,0,0,256,381.394ZM392,480V464a8,8,0,0,0-16,0v16H136V464a8,8,0,0,0-16,0v16H80.5A64.1,64.1,0,0,1,144,424h48.679A48.069,48.069,0,0,0,240,464h32a48.069,48.069,0,0,0,47.321-40H368a64.1,64.1,0,0,1,63.5,56Z"/><path d="M88,376a32,32,0,1,0-7-63.228A39.613,39.613,0,0,0,56,304a40,40,0,0,0,0,80,39.613,39.613,0,0,0,25-8.772A31.95,31.95,0,0,0,88,376ZM73.244,360.682a24,24,0,1,1,0-33.364A8,8,0,0,0,82,329.168a16,16,0,1,1,0,29.664A8,8,0,0,0,73.244,360.682Z"/><path d="M54.646,103.978C62.67,109.167,72.976,112,84,112a58.674,58.674,0,0,0,19.9-3.384,40,40,0,1,0,11.923-76.4,31.982,31.982,0,0,0-50.234-7.058,40,40,0,1,0-10.946,78.817ZM56,40a23.868,23.868,0,0,1,9.158,1.812,8,8,0,0,0,9.648-2.859,16,16,0,0,1,28.551,4.564,8,8,0,0,0,9.919,5.445,24,24,0,1,1-5.087,43.927,8,8,0,0,0-7.255-.326A41.239,41.239,0,0,1,84,96c-8.553,0-16.6-2.347-22.075-6.438a7.952,7.952,0,0,0-5.068-1.586l-.159.006c-.231.008-.464.018-.7.018a24,24,0,0,1,0-48Z"/><path d="M280,304H232a8,8,0,0,0,0,16h48a8,8,0,0,0,0-16Z"/><path d="M280,336H232a8,8,0,0,0,0,16h48a8,8,0,0,0,0-16Z"/><path d="M202.158,232a16,16,0,1,0,26.622-1.6,7.966,7.966,0,0,0,.877-.746l8-8a8,8,0,0,0-11.314-11.314L220.687,216H192a8,8,0,0,0,0,16Z"/><path d="M282.343,229.657a8.06,8.06,0,0,0,.877.746,16,16,0,1,0,26.622,1.6H320a8,8,0,0,0,0-16H291.313l-5.656-5.657a8,8,0,0,0-11.314,11.314Z"/><path d="M456,320a31.95,31.95,0,0,0-7,.772A39.613,39.613,0,0,0,424,312a40,40,0,1,0,15.7,76.8,31.991,31.991,0,1,0,47.78-42.535A32.19,32.19,0,0,0,456,320Zm8,64a16.083,16.083,0,0,1-14.473-9.173,8,8,0,0,0-11.815-3.138,24,24,0,1,1,3.532-36.371,8,8,0,0,0,8.755,1.85A15.9,15.9,0,0,1,456,336a16.071,16.071,0,0,1,15.94,14.687,8,8,0,0,0,2.665,5.34A15.995,15.995,0,0,1,464,384Z"/><path d="M400,104a32.036,32.036,0,0,0,7.378-.866,40.052,40.052,0,0,0,35.353,16.77A32,32,0,1,0,477.88,67.155,40.263,40.263,0,0,0,460.4,45.6a34.646,34.646,0,0,0-65.917-5.12A32,32,0,0,0,400,104Zm.018-48h0l.341.011a7.965,7.965,0,0,0,8.014-6.4,18.638,18.638,0,0,1,36.808,1.965,8,8,0,0,0,4.671,6.537,24.1,24.1,0,0,1,13.581,16.716,8,8,0,0,0,5.4,5.913,16,16,0,1,1-17.056,25.577,8,8,0,0,0-6.106-2.833,7.917,7.917,0,0,0-1.411.126A24,24,0,0,1,418.192,90.02a8,8,0,0,0-10.915-3.773A15.81,15.81,0,0,1,400,88a16,16,0,1,1,.018-32Z"/><circle cx="416" cy="256" r="8"/><circle cx="152" cy="368" r="8"/><circle cx="360" cy="352" r="8"/><circle cx="408" cy="144" r="8"/><circle cx="456" cy="208" r="8"/><circle cx="64" cy="216" r="8"/><circle cx="104" cy="280" r="8"/><circle cx="32" cy="280" r="8"/><circle cx="80" cy="72" r="8"/><circle cx="104" cy="168" r="8"/><circle cx="472" cy="272" r="8"/><circle cx="264" cy="48" r="8"/></g></svg>
